<svg aria-hidden="true" xmlns="http://www.w3.org/2000/svg" xmlns:xlink="http://www.w3.org/1999/xlink"><symbol viewBox="0 0 8 14" id="arrow" xmlns="http://www.w3.org/2000/svg">
<path d="M1 13L7 7L1 1" stroke-width="2" stroke-linecap="round" stroke-linejoin="round"/>
</symbol><symbol viewBox="0 0 19 13" id="check" xmlns="http://www.w3.org/2000/svg">
<path d="M17.5 1L6.5 12L1.5 7" stroke-width="2" stroke-linecap="round" stroke-linejoin="round"/>
</symbol><symbol viewBox="0 0 11 20" id="fb" xmlns="http://www.w3.org/2000/svg">
<path d="M11 0H8C6.67392 0 5.40215 0.526784 4.46447 1.46447C3.52678 2.40215 3 3.67392 3 5V8H0V12H3V20H7V12H10L11 8H7V5C7 4.73478 7.10536 4.48043 7.29289 4.29289C7.48043 4.10536 7.73478 4 8 4H11V0Z"/>
</symbol><symbol viewBox="0 0 20 16" id="gmail" xmlns="http://www.w3.org/2000/svg">
<path d="M2 0H18C19.1 0 20 0.9 20 2V14C20 15.1 19.1 16 18 16H2C0.9 16 0 15.1 0 14V2C0 0.9 0.9 0 2 0Z"/>
</symbol><symbol viewBox="0 0 20 20" id="inst" xmlns="http://www.w3.org/2000/svg">
<path d="M15 0H5C2.23858 0 0 2.23858 0 5V15C0 17.7614 2.23858 20 5 20H15C17.7614 20 20 17.7614 20 15V5C20 2.23858 17.7614 0 15 0Z"/>
</symbol><symbol viewBox="0 0 21 20" id="phone" xmlns="http://www.w3.org/2000/svg">
<path d="M20.4999 14.9201V17.9201C20.5011 18.1986 20.444 18.4743 20.3325 18.7294C20.2209 18.9846 20.0572 19.2137 19.852 19.402C19.6468 19.5902 19.4045 19.7336 19.1407 19.8228C18.8769 19.912 18.5973 19.9452 18.3199 19.9201C15.2428 19.5857 12.2869 18.5342 9.68994 16.8501C7.27376 15.3148 5.22527 13.2663 3.68993 10.8501C1.99991 8.2413 0.948176 5.27109 0.619933 2.1801C0.594944 1.90356 0.627808 1.62486 0.716434 1.36172C0.805059 1.09859 0.947504 0.856786 1.1347 0.651718C1.32189 0.44665 1.54974 0.282806 1.80372 0.170619C2.05771 0.0584315 2.33227 0.000358432 2.60993 9.69523e-05H5.60994C6.09524 -0.00467949 6.56573 0.167176 6.9337 0.48363C7.30167 0.800084 7.54201 1.23954 7.60994 1.7201C7.73656 2.68016 7.97139 3.62282 8.30994 4.5301C8.44448 4.88802 8.4736 5.27701 8.39384 5.65098C8.31409 6.02494 8.1288 6.36821 7.85994 6.6401L6.58994 7.9101C8.01349 10.4136 10.0864 12.4865 12.5899 13.9101L13.8599 12.6401C14.1318 12.3712 14.4751 12.1859 14.8491 12.1062C15.223 12.0264 15.612 12.0556 15.9699 12.1901C16.8772 12.5286 17.8199 12.7635 18.7799 12.8901C19.2657 12.9586 19.7093 13.2033 20.0265 13.5776C20.3436 13.9519 20.5121 14.4297 20.4999 14.9201Z"/>
</symbol><symbol viewBox="0 0 26 26" id="star" xmlns="http://www.w3.org/2000/svg">
<path d="M11.0435 2.02106C11.6593 0.125794 14.3406 0.125791 14.9564 2.02106L16.5794 7.01594C16.8548 7.86353 17.6446 8.43739 18.5358 8.43739H23.7878C25.7806 8.43739 26.6091 10.9875 24.9969 12.1588L20.748 15.2458C20.027 15.7696 19.7253 16.6982 20.0007 17.5458L21.6237 22.5406C22.2395 24.4359 20.0703 26.0119 18.458 24.8406L14.2091 21.7536C13.4881 21.2298 12.5118 21.2298 11.7908 21.7536L7.54193 24.8406C5.92972 26.0119 3.7605 24.4359 4.37631 22.5406L5.99925 17.5458C6.27465 16.6982 5.97295 15.7696 5.25195 15.2458L1.00305 12.1588C-0.60916 10.9875 0.219406 8.43739 2.21221 8.43739H7.46414C8.35534 8.43739 9.1452 7.86353 9.4206 7.01594L11.0435 2.02106Z"/>
</symbol><symbol viewBox="0 0 22 19" id="tw" xmlns="http://www.w3.org/2000/svg">
<path d="M22 1.00029C21.0424 1.67577 19.9821 2.1924 18.86 2.53029C18.2577 1.8378 17.4573 1.34698 16.567 1.12422C15.6767 0.90145 14.7395 0.957486 13.8821 1.28474C13.0247 1.612 12.2884 2.19469 11.773 2.95401C11.2575 3.71332 10.9877 4.61263 11 5.53029V6.53029C9.24263 6.57586 7.50127 6.1861 5.93101 5.39574C4.36074 4.60537 3.01032 3.43893 2 2.00029C2 2.00029 -2 11.0003 7 15.0003C4.94053 16.3983 2.48716 17.0992 0 17.0003C9 22.0003 20 17.0003 20 5.50029C19.9991 5.22174 19.9723 4.94388 19.92 4.67029C20.9406 3.66378 21.6608 2.393 22 1.00029Z"/>
</symbol><symbol viewBox="0 0 23 16" id="youtube" xmlns="http://www.w3.org/2000/svg">
<path fill-rule="evenodd" clip-rule="evenodd" d="M20.8392 1.15941C21.1799 1.51057 21.4218 1.94541 21.5406 2.42C21.8578 4.1787 22.0118 5.96295 22.0006 7.75C22.0069 9.51033 21.8529 11.2676 21.5406 13C21.4218 13.4746 21.1799 13.9094 20.8392 14.2606C20.4986 14.6118 20.0713 14.8668 19.6006 15C17.8806 15.46 11.0006 15.46 11.0006 15.46C11.0006 15.46 4.12057 15.46 2.40057 15C1.93939 14.8738 1.51855 14.6308 1.17872 14.2945C0.838878 13.9581 0.591531 13.5398 0.460572 13.08C0.143339 11.3213 -0.0106491 9.53704 0.000571645 7.75C-0.00819243 5.97631 0.145786 4.20556 0.460572 2.46C0.57936 1.98541 0.821288 1.55057 1.16192 1.19941C1.50255 0.84824 1.92982 0.593185 2.40057 0.46C4.12057 0 11.0006 0 11.0006 0C11.0006 0 17.8806 0 19.6006 0.42C20.0713 0.553185 20.4986 0.808241 20.8392 1.15941ZM14.5 7.74998L8.75 11.02V4.47998L14.5 7.74998Z"/>
</symbol></svg>