<svg aria-hidden="true" xmlns="http://www.w3.org/2000/svg" xmlns:xlink="http://www.w3.org/1999/xlink"><symbol viewBox="0 0 24 16" id="arrow" xmlns="http://www.w3.org/2000/svg">
<path d="M16 -6.99382e-07L14.59 1.41L20.17 7L-3.93402e-07 7L-3.0598e-07 9L20.17 9L14.58 14.58L16 16L24 8L16 -6.99382e-07Z"/>
</symbol><symbol viewBox="0 0 125 126" id="assistance" xmlns="http://www.w3.org/2000/svg">
<path d="M0 51.1658C0 48.9685 0 46.7713 0 44.5741C0.407707 42.0985 0.620105 39.5693 1.2573 37.1548C6.26208 18.2147 18.2662 6.23498 37.26 1.35715C39.6013 0.756575 42.0402 0.536858 44.4327 0.141357C46.6299 0.141357 48.8272 0.141357 51.0244 0.141357C51.3344 0.212157 51.6445 0.322012 51.9594 0.348867C57.6087 0.817608 63.0383 2.18965 68.0919 4.74331C84.3074 12.9438 93.4528 26.0808 95.2545 44.2152C95.3717 45.3993 95.755 45.8973 96.9024 46.2904C110.493 50.9363 119.358 60.2037 123.481 73.9388C124.233 76.446 124.507 79.0998 125 81.6852C125 83.7188 125 85.7549 125 87.7886C124.927 88.1011 124.819 88.4111 124.79 88.7285C124.26 94.2606 122.642 99.4558 119.922 104.292C119.504 105.034 119.461 105.672 119.683 106.46C121.292 112.158 122.869 117.866 124.448 123.574C124.561 123.979 124.634 124.397 124.746 124.902C124.441 124.839 124.285 124.817 124.133 124.775C118.308 123.166 112.476 121.582 106.665 119.919C105.611 119.619 104.815 119.792 103.821 120.22C100.665 121.577 97.4712 122.878 94.1998 123.916C92.0978 124.582 89.8371 124.751 87.6472 125.141C85.6136 125.141 83.5775 125.141 81.5438 125.141C81.2313 125.068 80.9237 124.956 80.6063 124.927C64.5715 123.388 50.8535 112.224 46.0343 96.7239C45.7584 95.8377 45.3751 95.5228 44.4645 95.4617C37.2185 94.9759 30.4315 92.9398 24.1011 89.3632C23.7105 89.1435 23.0879 89.1289 22.6338 89.2509C18.2809 90.413 13.9426 91.6288 9.59942 92.8251C6.52575 93.6722 3.45208 94.5145 0.23437 95.3983C0.361321 94.8416 0.43212 94.4559 0.537099 94.0775C2.41694 87.271 4.2797 80.4572 6.21082 73.6653C6.5111 72.6131 6.45983 71.8001 5.90809 70.8236C3.69622 66.915 2.08736 62.7524 1.19138 58.3434C0.707994 55.9679 0.390617 53.5583 0 51.1658ZM10.698 84.8711C11.0716 84.7832 11.2595 84.7466 11.4426 84.6954C15.3976 83.6065 19.3624 82.5494 23.3003 81.4044C24.2525 81.1261 24.9629 81.2531 25.7881 81.778C34.9944 87.6323 44.9918 89.5463 55.6874 87.481C77.7768 83.2159 92.2711 61.0508 87.0833 39.0078C83.4823 23.7127 73.8682 13.4272 58.7733 9.10846C43.7687 4.81411 30.268 8.45907 19.1427 19.433C5.51259 32.88 3.49114 53.4973 13.8376 69.847C14.3332 70.6307 14.4724 71.307 14.2087 72.22C13.0149 76.3532 11.8992 80.5109 10.698 84.8711ZM95.152 53.3947C93.7018 64.4541 89.1853 73.8606 81.4169 81.6144C73.6558 89.3657 64.2419 93.8651 53.2802 95.2933C53.3974 95.6815 53.4658 95.9451 53.5561 96.2015C57.9163 108.518 70.377 117.507 83.4798 117.803C90.5549 117.964 97.0611 116.152 102.962 112.231C103.658 111.77 104.27 111.628 105.108 111.89C107.393 112.6 109.715 113.198 112.024 113.831C112.735 114.026 113.457 114.185 114.295 114.39C113.474 111.418 112.771 108.621 111.909 105.874C111.521 104.636 111.68 103.711 112.383 102.61C120.977 89.1557 118.941 71.9588 107.469 60.8628C103.98 57.4889 99.9321 55.0011 95.152 53.3947Z"/>
<path d="M40.3253 36.7175C37.901 36.7175 35.5891 36.7175 33.1648 36.7175C33.0208 34.2175 33.6506 31.9348 34.8493 29.845C37.9206 24.4887 42.6177 21.7543 48.7724 22.1938C54.8123 22.6259 59.1726 25.8534 61.3454 31.5344C63.5548 37.3107 62.3341 42.589 58.091 47.0713C56.4187 48.8389 54.5633 50.4477 52.7054 52.0273C51.724 52.8623 51.2382 53.7363 51.3651 55.0522C51.4847 56.2973 51.3895 57.5594 51.3895 58.8973C48.9506 58.8973 46.6142 58.8973 44.063 58.8973C44.063 57.7303 44.0532 56.5316 44.0655 55.3353C44.0801 53.5898 43.6236 51.6294 44.2705 50.1572C44.9175 48.6851 46.6679 47.6939 47.9448 46.5049C49.6122 44.9522 51.3358 43.4605 52.9495 41.8541C55.1394 39.6715 55.6448 36.3732 54.3314 33.6194C53.0203 30.8704 50.0956 29.1981 47.0634 29.4642C44.0508 29.7303 41.4825 31.8884 40.6744 34.8596C40.5182 35.4358 40.4498 36.0412 40.3253 36.7175Z"/>
<path d="M51.2919 73.5921C48.8944 73.5921 46.5825 73.5921 44.168 73.5921C44.168 71.1945 44.168 68.8263 44.168 66.3775C46.5117 66.3775 48.8505 66.3775 51.2919 66.3775C51.2919 68.7311 51.2919 71.1018 51.2919 73.5921Z"/>
</symbol><symbol viewBox="0 0 14 14" id="close" xmlns="http://www.w3.org/2000/svg">
<path d="M7.5336 7.00244L13.3319 1.18972C13.4784 1.04335 13.4784 0.813355 13.3319 0.666992C13.1854 0.520628 12.9551 0.520628 12.8086 0.666992L7.01029 6.47971L1.19105 0.687901C1.04452 0.541537 0.814268 0.541537 0.66774 0.687901C0.521212 0.834264 0.521212 1.06426 0.66774 1.21063L6.48698 7.00244L0.688672 12.8152C0.542145 12.9615 0.542145 13.1915 0.688672 13.3379C0.75147 13.4006 0.856133 13.4424 0.939862 13.4424C1.02359 13.4424 1.12826 13.4006 1.19105 13.3379L7.01029 7.52516L12.8086 13.3379C12.8714 13.4006 12.9761 13.4424 13.0598 13.4424C13.1435 13.4424 13.2482 13.4006 13.311 13.3379C13.4575 13.1915 13.4575 12.9615 13.311 12.8152L7.5336 7.00244Z"/>
<path fill-rule="evenodd" clip-rule="evenodd" d="M0.66774 1.21063C0.521212 1.06426 0.521212 0.834264 0.66774 0.687901C0.814268 0.541537 1.04452 0.541537 1.19105 0.687901L7.01029 6.47971L12.8086 0.666992C12.9551 0.520628 13.1854 0.520628 13.3319 0.666992C13.4784 0.813355 13.4784 1.04335 13.3319 1.18972L7.5336 7.00244L13.311 12.8152C13.4575 12.9615 13.4575 13.1915 13.311 13.3379C13.2482 13.4006 13.1435 13.4424 13.0598 13.4424C12.9761 13.4424 12.8714 13.4006 12.8086 13.3379L7.01029 7.52516L1.19105 13.3379C1.12826 13.4006 1.02359 13.4424 0.939862 13.4424C0.856133 13.4424 0.75147 13.4006 0.688672 13.3379C0.542145 13.1915 0.542145 12.9615 0.688672 12.8152L6.48698 7.00244L0.66774 1.21063ZM5.69756 7.00386L0.273745 1.6056C-0.0907734 1.24149 -0.0914852 0.657746 0.273033 0.293636C0.637405 -0.070328 1.22077 -0.0704739 1.58532 0.293198L7.00887 5.69118L12.4132 0.273438C12.7777 -0.0906713 13.3621 -0.0913829 13.7266 0.272727C14.091 0.636743 14.0911 1.21957 13.7269 1.5837L8.32089 7.00315L13.7057 12.4209L13.7065 12.4217C14.0702 12.7859 14.0699 13.3683 13.7057 13.7321C13.537 13.9006 13.2899 14 13.0598 14C12.8297 14 12.5826 13.9006 12.4139 13.7321L7.00958 8.3144L1.58576 13.7321C1.41709 13.9006 1.16995 14 0.939862 14C0.709778 14 0.462634 13.9006 0.293965 13.7321C-0.0704666 13.3681 -0.0705527 12.7853 0.293707 12.4211L5.69756 7.00386Z"/>
</symbol><symbol viewBox="0 0 125 126" id="destin" xmlns="http://www.w3.org/2000/svg">
<path d="M121.93 57.3856C109.032 52.0747 96.1505 46.72 83.2625 41.3821C79.838 39.9649 77.4477 41.6655 77.4477 45.5086C77.4445 62.5042 77.4477 79.4998 77.4477 96.4987V97.7202H84.9893V96.4481C84.9893 92.8209 85.0153 89.1937 84.9731 85.5665C84.9633 84.7061 85.1877 84.2438 85.978 83.8389C97.8448 77.7655 109.682 71.6346 121.549 65.5612C123.006 64.8155 124.281 63.9754 125 62.4165V60.392C124.392 58.9344 123.383 57.9829 121.93 57.3856ZM87.7634 73.5343V52.9891L110.125 60.7834L87.7634 73.5343Z"/>
<path d="M46.3391 24.1703C46.2773 29.0999 45.048 33.6787 42.6252 37.8964C36.7812 48.0661 30.9209 58.2257 25.0541 68.3785C23.8801 70.4098 22.1695 70.3828 20.9988 68.3245C15.2621 58.2358 9.43106 48.2044 3.84071 38.028C-1.10897 29.0156 -1.51548 19.8109 4.03584 10.8761C9.22293 2.52847 19.054 -1.43954 28.2639 0.77391C37.6625 3.0346 44.661 10.8593 46.0171 20.6477C46.1797 21.8151 46.235 22.9961 46.3391 24.1703ZM22.8947 36.9752C29.3794 37.1001 34.7811 31.6542 34.947 24.8316C35.1063 18.1846 29.8119 12.4384 23.402 12.3034C16.6865 12.1617 11.2132 17.5671 11.1156 24.4301C11.0181 31.2594 16.2637 36.847 22.8947 36.9752Z"/>
<path d="M29.5551 75.8222C31.0478 73.2275 32.4006 70.8386 33.812 68.4868C33.9747 68.2135 34.4657 68.0178 34.8039 68.0178C39.7211 67.9942 44.6415 67.9031 49.5554 68.0414C57.2206 68.2574 63.1654 74.8504 63.0776 82.8472C62.9931 90.6381 56.8791 97.0557 49.2822 97.1097C37.9845 97.1906 26.6867 97.1232 15.3857 97.14C11.6361 97.1468 8.69291 99.4648 7.91891 102.95C6.86523 107.694 10.1921 112.179 14.8849 112.249C18.8654 112.31 22.8493 112.263 26.8331 112.263C38.8235 112.263 50.8107 112.263 62.8012 112.263C63.276 112.263 63.754 112.263 64.1248 112.263C64.2581 114.908 64.3849 117.412 64.5183 120.03C64.3036 120.04 63.9199 120.081 63.5362 120.081C47.4025 120.084 31.2657 120.094 15.132 120.077C7.25548 120.071 1.02773 114.102 0.211458 105.849C-0.523515 98.4087 4.70259 91.2589 12.0978 89.6663C13.2816 89.4132 14.5174 89.3424 15.7304 89.339C26.6217 89.3154 37.5162 89.3053 48.4074 89.339C50.9018 89.3458 52.9799 88.5663 54.4043 86.3967C55.8222 84.2407 55.9848 81.8923 54.8563 79.5607C53.7051 77.182 51.7636 75.8661 49.1912 75.8424C43.1781 75.7851 37.1617 75.8188 31.1453 75.8188C30.6998 75.8222 30.2543 75.8222 29.5551 75.8222Z"/>
<path d="M71.7413 115.232C71.7673 109.752 76.0113 105.389 81.3025 105.406C86.5644 105.423 90.8408 109.887 90.8051 115.32C90.7693 120.759 86.457 125.186 81.2147 125.169C75.9658 125.152 71.7153 120.695 71.7413 115.232Z"/>
<path d="M23.0076 20.1147C25.4565 20.1046 27.4435 22.1595 27.4175 24.6765C27.3915 27.1262 25.4077 29.1743 23.0467 29.1878C20.6271 29.2013 18.6401 27.1194 18.6563 24.5922C18.6726 22.1021 20.5946 20.1248 23.0076 20.1147Z"/>
</symbol><symbol viewBox="0 0 21 15" id="galeryarow" xmlns="http://www.w3.org/2000/svg">
<path d="M14 0.666992L12.7663 1.90074L17.6487 6.79199L-3.44227e-07 6.79199L-2.67732e-07 8.54199L17.6488 8.54199L12.7575 13.4245L14 14.667L21 7.66699L14 0.666992Z"/>
</symbol><symbol viewBox="0 0 125 125" id="hotel" xmlns="http://www.w3.org/2000/svg">
<path d="M5.25868 72.8873C5.25868 88.6017 5.25868 104.111 5.25868 119.715C13.9388 119.715 22.5517 119.715 31.2586 119.715C31.2586 119.094 31.2586 118.553 31.2586 118.012C31.2586 92.0333 31.2586 66.0576 31.2586 40.0784C31.2586 37.2344 32.0007 36.4789 34.8046 36.4789C53.2695 36.4789 71.7378 36.4789 90.2027 36.4789C93.0031 36.4789 93.7486 37.2377 93.7486 40.0818C93.7486 66.0609 93.7486 92.0367 93.7486 118.016C93.7486 118.556 93.7486 119.097 93.7486 119.722C102.429 119.722 111.011 119.722 119.705 119.722C119.705 104.168 119.705 88.6285 119.705 72.9511C119.255 72.9309 118.812 72.8906 118.368 72.8906C113.207 72.8873 108.043 72.8873 102.882 72.8873C102.546 72.8873 102.21 72.894 101.875 72.8839C100.071 72.8403 98.9801 71.8363 99.007 70.2581C99.0339 68.7337 100.108 67.7566 101.851 67.7465C105.209 67.7297 108.567 67.7398 111.925 67.7398C114.567 67.7398 117.213 67.7129 119.856 67.7499C122.777 67.7935 124.977 69.9324 124.98 72.847C125.007 88.5009 125.007 104.155 124.983 119.809C124.98 122.791 122.791 124.899 119.789 124.99C119.453 125 119.117 124.997 118.781 124.997C81.2607 124.997 43.7398 124.997 6.22238 124.99C5.47022 124.99 4.69455 125.007 3.96926 124.842C1.62882 124.312 0.0371916 122.29 0.0204022 119.806C-0.0131764 115.316 0.00697077 110.823 0.00697077 106.334C0.00697077 95.4213 0.00361291 84.5119 0.00697077 73.5991C0.00697077 69.7142 1.99819 67.7398 5.90339 67.7398C11.5278 67.7364 17.1522 67.7331 22.7733 67.7465C23.3106 67.7465 23.8814 67.7599 24.3817 67.9312C25.5268 68.3241 26.1715 69.553 25.97 70.7652C25.7551 72.0411 24.7511 72.8705 23.2501 72.8738C17.7936 72.894 12.3371 72.8839 6.88388 72.8839C6.38692 72.8873 5.88996 72.8873 5.25868 72.8873ZM49.4717 119.752C49.4717 119.147 49.4717 118.647 49.4717 118.15C49.4717 109.464 49.4717 100.78 49.4717 92.0938C49.4717 89.4143 50.328 88.5513 53.0076 88.548C59.3439 88.5412 65.6802 88.5412 72.0165 88.548C74.6927 88.5513 75.5523 89.4176 75.5523 92.0938C75.5556 100.821 75.5523 109.548 75.5523 118.278C75.5523 118.761 75.5523 119.245 75.5523 119.755C79.9679 119.755 84.1854 119.755 88.4834 119.755C88.4834 93.7256 88.4834 67.7734 88.4834 41.7405C71.1468 41.7405 53.884 41.7405 36.5473 41.7405C36.5473 67.77 36.5473 93.7223 36.5473 119.755C40.8319 119.752 45.0494 119.752 49.4717 119.752ZM54.7503 93.7794C54.7503 102.473 54.7503 111.062 54.7503 119.728C59.9248 119.728 65.0623 119.728 70.2133 119.728C70.2133 111.042 70.2133 102.429 70.2133 93.7794C65.0455 93.7794 59.9751 93.7794 54.7503 93.7794Z"/>
<path d="M62.4062 0C64.5888 0.0235044 66.167 0.980471 67.1576 2.83732C67.9265 4.27781 68.5578 5.79553 69.3671 7.20915C69.629 7.66581 70.2233 8.10568 70.7371 8.21648C72.1675 8.52876 73.6315 8.66978 75.0855 8.86789C77.2983 9.16674 78.9706 10.2144 79.7059 12.3936C80.4514 14.603 79.857 16.5136 78.2016 18.1219C77.117 19.1729 75.9854 20.1802 74.9814 21.3051C74.6288 21.698 74.4005 22.4031 74.4576 22.9236C74.6322 24.5017 74.9915 26.0597 75.2467 27.6312C75.5858 29.713 74.9545 31.4691 73.2689 32.7451C71.59 34.0143 69.7196 34.1923 67.8191 33.2756C66.3114 32.5503 64.8272 31.7679 63.3665 30.9453C62.7453 30.5961 62.2584 30.6062 61.644 30.9554C60.2975 31.7209 58.9106 32.416 57.5339 33.1278C55.5763 34.1385 53.6354 34.1285 51.8491 32.8055C50.0324 31.459 49.371 29.6055 49.8142 27.3659C49.9687 26.5869 49.9519 25.7508 50.2238 25.0188C51.0566 22.7825 50.4354 21.1137 48.5315 19.7471C47.7558 19.1931 47.1145 18.4376 46.463 17.7291C43.6491 14.6869 45.083 9.9726 49.1292 9.07608C50.8014 8.70672 52.5173 8.52876 54.2197 8.30379C54.9484 8.20977 55.4118 7.91764 55.7274 7.21251C56.3956 5.72501 57.131 4.26438 57.8932 2.82053C58.8536 1.00062 60.3982 0.0671556 62.4062 0ZM50.4522 14.1127C52.0438 15.7715 53.4978 17.3295 55.0088 18.8338C55.8819 19.7034 56.2546 20.647 56.0229 21.8894C55.6199 24.0451 55.2976 26.2175 54.9081 28.5848C56.8926 27.5573 58.7125 26.7044 60.4385 25.6904C61.8622 24.8509 63.1281 24.8408 64.5552 25.6803C66.2946 26.7011 68.1246 27.5707 70.0823 28.5915C69.7028 26.2511 69.4275 24.1357 68.991 22.0505C68.6955 20.6369 69.1757 19.6497 70.1427 18.6894C71.6235 17.2254 73.0171 15.6741 74.4979 14.1094C73.1144 13.8945 71.6773 13.4748 70.2468 13.4848C67.2113 13.505 65.4518 12.0712 64.4948 9.27754C64.0348 7.93779 63.2591 6.70884 62.5204 5.22135C61.4257 7.40726 60.4452 9.29769 59.5285 11.2217C58.9711 12.3868 58.1417 13.0181 56.8355 13.1726C54.72 13.4244 52.618 13.787 50.4522 14.1127Z"/>
<path d="M18.1562 28.9205C18.3006 28.0441 18.5625 26.8085 18.6733 25.5627C18.7136 25.1061 18.5088 24.5218 18.2099 24.1659C17.5384 23.3668 16.7123 22.7019 15.9937 21.9363C14.7748 20.6369 14.3752 19.0957 14.9494 17.4033C15.5169 15.7278 16.7056 14.4586 18.4853 14.4283C21.4939 14.378 23.2736 13.0953 24.2675 10.2479C24.8451 8.59253 26.3763 7.81688 28.1828 7.80681C29.9826 7.80009 31.5843 8.5388 32.1283 10.1908C33.1054 13.1591 35.0496 14.1463 38.0046 14.4586C41.4632 14.8246 42.8399 19.0486 40.57 21.7248C39.8413 22.5844 38.9179 23.2828 38.2027 24.1525C37.887 24.5353 37.7024 25.1632 37.7326 25.6635C37.7897 26.6607 38.0583 27.6446 38.2027 28.6385C38.4545 30.3576 37.8937 31.8048 36.5372 32.8659C35.1369 33.9605 33.5453 34.1452 31.9167 33.4334C30.8825 32.9834 29.9255 32.3522 28.8879 31.9089C28.5018 31.7444 27.9242 31.7478 27.5347 31.9123C26.4602 32.3723 25.473 33.0372 24.3918 33.4837C21.3596 34.7496 18.1327 32.5469 18.1562 28.9205ZM32.9778 27.9703C31.2385 24.3002 32.3298 21.52 35.6138 19.4751C33.7501 19.0016 31.9134 18.9882 30.7146 18.1051C29.5192 17.2254 28.9685 15.476 28.0955 14.0489C27.6422 14.9589 27.1586 15.795 26.796 16.6814C26.242 18.0312 25.285 18.7263 23.8411 18.8573C22.8774 18.9446 21.9237 19.136 20.9399 19.2837C22.0614 20.6302 23.5154 21.7013 23.9552 23.0948C24.4052 24.5218 23.8612 26.2612 23.7571 27.7856C25.2245 27.198 26.7255 26.1201 28.2164 26.1302C29.7106 26.1369 31.1982 27.2316 32.9778 27.9703Z"/>
<path d="M96.8781 7.78668C98.5939 7.82026 100.159 8.53547 100.696 10.1338C101.7 13.1289 103.654 14.153 106.673 14.4687C110.074 14.8212 111.421 19.0084 109.232 21.6644C108.94 22.0203 108.641 22.4031 108.261 22.6448C106.236 23.9242 106.038 25.6904 106.649 27.8259C107.23 29.8506 106.764 31.6773 104.991 32.97C103.261 34.2292 101.344 34.209 99.7121 32.9834C97.5295 31.3449 95.733 31.9257 93.6209 33.1513C90.4948 34.9645 86.828 32.923 86.7877 29.4779C86.7742 28.2792 87.016 27.0536 87.3014 25.8817C87.513 25.0121 87.2712 24.4681 86.6399 23.9208C85.9415 23.3198 85.3001 22.6516 84.6621 21.9867C83.4231 20.6973 83.0369 19.1528 83.5574 17.4604C84.0947 15.7077 85.327 14.4519 87.157 14.4015C90.1623 14.3209 91.9252 13.0215 92.9057 10.1673C93.4665 8.50525 95.0514 7.79004 96.8781 7.78668ZM97.0191 13.8844C96.9184 13.9448 96.8176 14.0053 96.7169 14.0624C96.277 14.9488 95.8002 15.8218 95.4107 16.7318C94.8634 18.0111 93.9433 18.7062 92.5531 18.8438C91.576 18.9412 90.6089 19.1259 89.1046 19.3509C92.7882 21.5133 93.6075 24.3775 92.1804 28.1147C95.2663 25.5325 98.2346 25.5124 101.216 28.1348C101.096 26.1974 100.552 24.4446 101.018 23.0243C101.478 21.6241 102.963 20.5597 104.242 19.0621C100.152 19.5154 97.8552 17.7056 97.0191 13.8844Z"/>
<path d="M106.746 93.7323C105.111 93.7323 103.472 93.7525 101.837 93.7256C100.017 93.6987 99.0129 92.725 99.0028 90.9252C98.9793 87.5674 98.976 84.2097 99.0062 80.8519C99.0196 79.2032 100.027 78.1523 101.666 78.1321C105.064 78.0918 108.465 78.0952 111.863 78.1287C113.566 78.1455 114.587 79.2032 114.597 80.9191C114.62 84.2332 114.627 87.5507 114.593 90.8648C114.573 92.7183 113.532 93.6853 111.659 93.729C111.618 93.729 111.575 93.729 111.534 93.729C109.936 93.7323 108.341 93.7323 106.746 93.7323ZM104.241 88.4237C106.001 88.4237 107.643 88.4237 109.271 88.4237C109.271 86.681 109.271 85.0357 109.271 83.4072C107.549 83.4072 105.93 83.4072 104.241 83.4072C104.241 85.086 104.241 86.6978 104.241 88.4237Z"/>
<path d="M26.0105 85.9625C26.0105 87.5978 26.0273 89.2363 26.0071 90.8716C25.9836 92.6881 25.0098 93.7089 23.2234 93.7257C19.8656 93.7526 16.5111 93.7559 13.1532 93.7223C11.5112 93.7055 10.4434 92.6949 10.4199 91.0596C10.3729 87.6213 10.3695 84.1795 10.4232 80.7378C10.4501 79.1731 11.5213 78.1557 13.0928 78.1355C16.5346 78.0986 19.973 78.0919 23.4148 78.1389C24.9762 78.159 25.9668 79.2234 26.0004 80.8016C26.034 82.5208 26.0071 84.2433 26.0105 85.9625ZM20.7453 88.4473C20.7453 86.7281 20.7453 85.0861 20.7453 83.4341C19.006 83.4341 17.3606 83.4341 15.7388 83.4341C15.7388 85.1734 15.7388 86.8187 15.7388 88.4473C17.458 88.4473 19.0765 88.4473 20.7453 88.4473Z"/>
<path d="M26.0099 106.764C26.0099 108.443 26.03 110.122 26.0032 111.801C25.9763 113.52 24.9858 114.561 23.2665 114.581C19.9087 114.621 16.5541 114.621 13.1963 114.581C11.4871 114.561 10.4361 113.52 10.416 111.821C10.3757 108.463 10.3757 105.105 10.416 101.751C10.4361 100.021 11.4636 99.0108 13.1795 98.994C16.5374 98.9638 19.8919 98.9638 23.2497 98.9906C25.0025 99.0041 25.9528 99.9912 26.0099 101.727C26.0133 101.811 26.0133 101.895 26.0133 101.979C26.0099 103.577 26.0099 105.169 26.0099 106.764ZM15.6979 104.225C15.6979 105.998 15.6979 107.617 15.6979 109.296C17.4104 109.296 19.0591 109.296 20.738 109.296C20.738 107.57 20.738 105.921 20.738 104.225C19.0188 104.225 17.4037 104.225 15.6979 104.225Z"/>
<path d="M98.9934 106.818C98.9934 105.182 98.9799 103.544 98.9967 101.909C99.0169 99.9879 99.947 99.0074 101.834 98.994C105.148 98.9671 108.466 98.9671 111.78 98.9973C113.583 99.0141 114.577 100.008 114.594 101.825C114.624 105.139 114.628 108.456 114.591 111.77C114.571 113.543 113.519 114.571 111.733 114.587C108.419 114.618 105.101 114.621 101.787 114.587C100.001 114.567 99.0202 113.53 98.9967 111.73C98.9799 110.088 98.9967 108.453 98.9934 106.818ZM109.315 104.269C107.549 104.269 105.904 104.269 104.238 104.269C104.238 105.998 104.238 107.62 104.238 109.292C105.961 109.292 107.61 109.292 109.315 109.292C109.315 107.6 109.315 105.978 109.315 104.269Z"/>
<path d="M57.2621 54.6847C57.2621 56.3636 57.289 58.0425 57.2554 59.7181C57.2218 61.4473 56.2346 62.458 54.502 62.4748C51.1441 62.5084 47.7896 62.5084 44.4317 62.4748C42.7797 62.458 41.7119 61.4641 41.6816 59.8188C41.6212 56.3804 41.6212 52.9387 41.685 49.497C41.7152 47.855 42.7931 46.8947 44.4586 46.8813C47.8165 46.8578 51.171 46.8544 54.5288 46.8813C56.2581 46.8947 57.2252 47.892 57.2588 49.6481C57.289 51.3303 57.2621 53.0092 57.2621 54.6847ZM46.9636 52.1631C46.9636 53.8722 46.9636 55.5175 46.9636 57.1628C48.6962 57.1628 50.3449 57.1628 52.0339 57.1628C52.0339 55.4604 52.0339 53.8487 52.0339 52.1631C50.3114 52.1631 48.6626 52.1631 46.9636 52.1631Z"/>
<path d="M67.745 54.6176C67.745 52.9387 67.7182 51.2598 67.7518 49.5843C67.7887 47.9088 68.7591 46.9048 70.4213 46.888C73.8194 46.8544 77.2176 46.8578 80.6157 46.888C82.2141 46.9014 83.2852 47.8551 83.3155 49.4399C83.3826 52.9219 83.3826 56.404 83.3155 59.886C83.2852 61.4675 82.2141 62.4547 80.6325 62.4748C77.2344 62.5151 73.8362 62.5151 70.4381 62.4748C68.7793 62.4547 67.7887 61.4306 67.7518 59.7819C67.7148 58.0593 67.745 56.3402 67.745 54.6176ZM78.057 57.2065C78.057 55.447 78.057 53.8353 78.057 52.1664C76.3378 52.1664 74.6891 52.1664 73.0001 52.1664C73.0001 53.8856 73.0001 55.5276 73.0001 57.2065C74.7227 57.2065 76.3445 57.2065 78.057 57.2065Z"/>
<path d="M49.5284 67.7431C51.2073 67.7431 52.8863 67.7196 54.5618 67.7499C56.2676 67.7801 57.2314 68.7035 57.2481 70.4025C57.2851 73.8006 57.2817 77.1987 57.2515 80.5967C57.2381 82.2555 56.2576 83.2897 54.5921 83.3165C51.1939 83.3703 47.7957 83.3669 44.3976 83.3199C42.7388 83.2964 41.7046 82.2857 41.6777 80.6337C41.6206 77.2356 41.624 73.8375 41.6744 70.4394C41.7012 68.7135 42.7489 67.7902 44.4916 67.7431C44.5756 67.7398 44.6595 67.7431 44.7434 67.7431C46.3384 67.7398 47.9334 67.7398 49.5284 67.7431ZM51.9964 78.0683C51.9964 76.2685 51.9964 74.6199 51.9964 72.9947C50.2336 72.9947 48.5882 72.9947 46.9764 72.9947C46.9764 74.7575 46.9764 76.4129 46.9764 78.0683C48.6957 78.0683 50.3209 78.0683 51.9964 78.0683Z"/>
<path d="M75.5788 67.7431C77.2141 67.7431 78.8527 67.7264 80.488 67.7465C82.2576 67.77 83.3019 68.6833 83.3287 70.4059C83.3858 73.8039 83.3858 77.202 83.3287 80.6001C83.3019 82.3125 82.2509 83.3031 80.5115 83.3232C77.1973 83.3635 73.8831 83.3602 70.5688 83.3232C68.7422 83.3031 67.765 82.3058 67.7516 80.4993C67.7247 77.1852 67.7247 73.8711 67.7516 70.557C67.765 68.7035 68.7052 67.7734 70.5453 67.7465C72.2209 67.723 73.8998 67.7431 75.5788 67.7431ZM72.9664 78.0549C74.6889 78.0549 76.3444 78.0549 78.0602 78.0549C78.0602 76.3458 78.0602 74.6904 78.0602 73.0081C76.3242 73.0081 74.6453 73.0081 72.9664 73.0081C72.9664 74.7508 72.9664 76.3693 72.9664 78.0549Z"/>
</symbol><symbol viewBox="0 0 20 20" id="inst" xmlns="http://www.w3.org/2000/svg">
<path d="M5.8 0H14.2C17.4032 0 20 2.59675 20 5.8V14.2C20 17.4033 17.4032 20 14.2 20H5.8C2.59675 20 0 17.4033 0 14.2V5.8C0 2.59675 2.59675 0 5.8 0ZM5.6 1.99998C3.61177 1.99998 2 3.61176 2 5.59998V14.4C2 16.3882 3.61177 18 5.6 18H14.4C16.3882 18 18 16.3882 18 14.4V5.59998C18 3.61176 16.3882 1.99998 14.4 1.99998H5.6ZM15.25 3.49998C15.9404 3.49998 16.5 4.05963 16.5 4.74998C16.5 5.44034 15.9404 5.99998 15.25 5.99998C14.5596 5.99998 14 5.44034 14 4.74998C14 4.05963 14.5596 3.49998 15.25 3.49998ZM10 4.99998C12.7614 4.99998 15 7.23856 15 9.99998C15 12.7614 12.7614 15 10 15C7.23857 15 5 12.7614 5 9.99998C5 7.23856 7.23857 4.99998 10 4.99998ZM10 6.99998C8.3431 6.99998 7 8.34318 7 9.99998C7 11.6569 8.3431 13 10 13C11.6569 13 13 11.6569 13 9.99998C13 8.34318 11.6569 6.99998 10 6.99998Z"/>
</symbol><symbol viewBox="0 0 125 125" id="tours" xmlns="http://www.w3.org/2000/svg">
<path d="M121.23 96.199C125.327 96.3491 124.971 96.4114 124.99 100.253C124.997 102.128 125.012 104.007 124.982 105.882C124.961 107.409 124.521 107.833 122.998 107.837C119.432 107.852 115.866 107.841 112.63 107.841C111.48 110.137 110.433 112.232 109.375 114.352C109.481 114.359 109.858 114.418 110.235 114.418C114.398 114.425 118.565 114.418 122.727 114.425C124.558 114.429 124.979 114.85 124.986 116.699C124.997 118.805 125.008 120.911 124.982 123.016C124.961 124.533 124.514 124.946 122.987 124.994C122.669 125.005 122.346 124.998 122.028 124.998C82.3523 124.998 42.6766 124.998 3.0009 124.998C2.59085 124.998 2.17714 124.994 1.7671 124.994C0.573567 124.987 0.0134128 124.353 0.0097517 123.192C0.00609057 120.951 -0.0122115 118.706 0.0134164 116.465C0.0280609 114.905 0.511331 114.44 2.0966 114.433C6.16778 114.422 10.2426 114.429 14.3138 114.429C14.8154 114.429 15.3133 114.429 15.6757 114.429C14.6067 112.319 13.5376 110.203 12.3441 107.852C9.24679 107.852 5.77604 107.855 2.30528 107.852C0.3539 107.848 0.0134148 107.504 0.00609258 105.515C-0.00122968 103.318 0.00243145 101.121 0.00609258 98.9236C0.00975371 96.6018 0.298982 96.3125 2.59085 96.2942C2.90937 96.2905 3.22789 96.2942 3.76608 96.2942C3.76608 95.7192 3.76608 95.1919 3.76608 94.6646C3.76608 79.9247 3.76608 65.1847 3.76608 50.4485C3.76608 48.3208 4.12486 47.9546 6.21171 47.9546C31.565 47.9546 56.9147 47.9327 82.2681 47.962C100.998 47.9839 116.221 60.0908 120.267 78.2511C120.886 81.0343 121.054 83.942 121.201 86.802C121.351 89.8928 121.23 93.002 121.23 96.199ZM45.7336 87.9007C70.0033 87.9007 94.0862 87.9007 118.092 87.9007C118.092 86.0806 118.092 84.3668 118.092 82.5614C117.378 82.5614 116.833 82.5614 116.287 82.5614C107.318 82.5614 98.3514 82.543 89.3816 82.5687C86.5333 82.576 84.3659 81.3565 82.7184 79.1263C81.3491 77.2733 80.6169 75.1676 80.5949 72.8641C80.5546 68.9274 80.5693 64.9907 80.562 61.0576C80.562 60.5705 80.562 60.0835 80.562 59.5525C55.875 59.5525 31.3747 59.5525 6.84875 59.5525C6.84875 69.0592 6.84875 78.4928 6.84875 87.93C11.9817 87.93 16.9974 87.93 22.1742 87.93C22.1742 87.3697 22.1742 86.8826 22.1742 86.3919C22.1742 79.8917 22.1706 73.3915 22.1779 66.8949C22.1816 65.2873 22.6429 64.7709 24.1659 64.7673C30.7083 64.7526 37.2544 64.749 43.7969 64.7673C45.2577 64.7709 45.7263 65.2873 45.73 66.7997C45.7446 70.5973 45.7336 74.3986 45.7336 78.1961C45.7336 81.3968 45.7336 84.5938 45.7336 87.9007ZM117.484 79.6427C117.484 79.3131 117.499 79.1776 117.481 79.0494C117.444 78.7784 117.411 78.5038 117.345 78.2364C115.61 71.1063 112.051 65.0419 106.607 60.1201C106.164 59.7209 105.395 59.5122 104.777 59.5085C98.1464 59.4646 91.5124 59.4792 84.8821 59.4865C84.4428 59.4865 84.0034 59.5341 83.4506 59.5671C83.4506 61.1748 83.4323 62.6762 83.4543 64.1777C83.5019 67.4223 83.3737 70.6852 83.6813 73.9078C84.0437 77.6944 86.4601 79.6427 90.22 79.6427C98.7724 79.6463 107.325 79.6427 115.881 79.6427C116.371 79.6427 116.869 79.6427 117.484 79.6427ZM42.6693 96.2356C42.6693 86.6592 42.6693 77.222 42.6693 67.8031C36.7822 67.8031 31.0012 67.8031 25.2386 67.8031C25.2386 77.3356 25.2386 86.7728 25.2386 96.2356C31.0854 96.2356 36.8334 96.2356 42.6693 96.2356ZM118.209 90.9878C94.0606 90.9878 69.9703 90.9878 45.8178 90.9878C45.8178 92.7603 45.8178 94.4668 45.8178 96.199C69.9886 96.199 94.0752 96.199 118.209 96.199C118.209 94.4338 118.209 92.7529 118.209 90.9878ZM90.0626 107.892C71.7789 107.892 53.2097 107.892 34.9443 107.892C33.802 110.166 32.7329 112.287 31.7188 114.308C52.1845 114.308 72.859 114.308 93.2515 114.308C92.219 112.235 91.1793 110.141 90.0626 107.892ZM22.1193 90.9951C16.9132 90.9951 11.8718 90.9951 6.8341 90.9951C6.8341 92.7969 6.8341 94.5034 6.8341 96.199C11.9817 96.199 17.023 96.199 22.1193 96.199C22.1193 94.4412 22.1193 92.7676 22.1193 90.9951ZM31.3893 107.951C26.1649 107.951 21.0356 107.951 15.8881 107.951C16.6825 111.99 20.0069 114.568 24.111 114.414C27.7318 114.282 31.0195 111.382 31.3893 107.951ZM93.6249 107.91C93.8189 111.221 97.2055 114.26 100.83 114.414C104.993 114.59 108.544 111.814 109.075 107.91C103.92 107.91 98.7724 107.91 93.6249 107.91Z"/>
<path d="M84.1216 29.4424C84.5463 28.8858 84.8794 28.4683 85.1943 28.0399C89.573 22.1182 93.948 16.1966 98.3304 10.275C99.5972 8.5611 100.454 8.55744 101.677 10.2676C109.204 20.7999 116.731 31.3284 124.233 41.879C124.581 42.3697 124.888 43.0289 124.863 43.5965C124.848 43.992 124.237 44.6805 123.892 44.6805C123.31 44.6768 122.527 44.3912 122.186 43.9517C120.488 41.7398 118.946 39.407 117.247 37.1951C116.794 36.6019 116.047 36.0892 115.336 35.8658C112.722 35.0528 110.057 34.4009 107.425 33.6429C106.722 33.4415 106.253 33.5037 105.792 34.1336C105.118 35.0564 104.331 35.8914 103.602 36.774C102.969 37.5357 102.197 37.9166 101.351 37.2464C100.425 36.5103 100.699 35.6607 101.38 34.8624C102.42 33.6429 103.478 32.438 104.459 31.1746C105.129 30.314 105.909 30.1822 106.886 30.4568C109.076 31.0757 111.273 31.6653 113.861 32.3721C111.675 29.3069 109.706 26.5494 107.663 23.6856C106.011 24.44 104.408 25.1797 102.797 25.9048C101.358 26.5494 100.791 26.3223 100.11 24.8611C99.7839 24.158 99.4654 23.4549 99.07 22.587C97.6897 23.2645 96.3607 23.92 95.0281 24.5755C94.618 24.7769 94.2226 25.0296 93.7906 25.1651C90.1222 26.3187 87.7827 28.992 85.8679 32.1231C85.6446 32.4857 85.6519 33.0276 85.6666 33.4854C85.6739 33.7857 85.8862 34.0787 85.9997 34.379C86.3365 35.2762 86.3878 36.1771 85.3663 36.5945C84.3156 37.023 83.6529 36.4554 83.2649 35.4483C81.7492 31.5262 80.2151 27.615 78.6811 23.7039C78.1356 22.3087 77.5755 20.9207 77.03 19.5511C76.0231 20.5179 75.0346 21.4004 74.145 22.3709C73.9363 22.598 73.9253 23.2095 74.0754 23.5171C74.5331 24.4583 75.1115 25.3445 75.6534 26.2454C76.1732 27.1097 76.122 27.886 75.3275 28.5672C73.7972 29.8782 72.2741 31.1929 70.7511 32.5076C69.9823 33.1705 69.1549 33.3243 68.4739 32.4783C67.7929 31.636 68.148 30.8633 68.9059 30.2188C70.158 29.1568 71.3991 28.0801 72.6732 26.9852C72.0764 25.9634 71.5785 24.982 70.9635 24.0848C70.136 22.8836 70.3191 21.9315 71.3552 20.9537C72.5853 19.7928 73.7166 18.5294 74.8882 17.3062C75.8584 16.2955 75.8547 16.2955 75.0932 14.8563C73.5446 15.4239 71.9739 15.9988 70.4033 16.5775C68.3091 17.3465 68.2359 17.3245 66.9362 15.4715C66.8081 15.2884 66.6506 15.1236 66.4456 14.8746C62.3305 17.0023 58.23 19.108 54.1515 21.2503C53.7232 21.4774 53.39 21.8985 53.0386 22.2574C46.0165 29.3399 38.9945 36.4297 31.9761 43.5159C31.6868 43.8089 31.4013 44.1092 31.0974 44.3838C30.4677 44.9588 29.7647 45.0394 29.1314 44.4571C28.4467 43.8345 28.4577 43.0655 29.0398 42.377C29.5707 41.7508 30.1711 41.1795 30.7606 40.6045C33.5833 37.8616 36.4097 35.1297 39.3203 32.3099C37.2664 29.5303 35.3809 26.9742 33.3929 24.2825C32.6936 25.1981 32.1042 25.9927 31.4928 26.7691C30.6105 27.8897 29.816 28.0728 28.8714 27.0804C27.7841 25.9415 26.715 25.751 25.3604 26.4468C24.8808 26.6959 24.3206 26.7874 23.8008 26.9632C22.8562 27.2855 22.1276 27.0547 21.5345 26.2234C20.5826 24.8904 19.5831 23.5977 18.4335 22.0633C18.2065 22.6236 17.9649 22.9642 17.9466 23.3121C17.8661 25.004 17.8111 26.6995 17.8441 28.3878C17.8514 28.7064 18.2358 29.1714 18.5544 29.2996C19.4404 29.6585 20.3776 29.8892 21.3002 30.1456C22.3217 30.4312 22.8525 31.0245 22.7171 32.1414C22.4901 34.0494 22.318 35.961 22.08 37.8689C21.9629 38.7955 21.432 39.4473 20.4325 39.3155C19.466 39.1873 19.0523 38.4915 19.1548 37.5247C19.3195 35.983 19.5026 34.4412 19.693 32.7603C18.7118 32.46 17.7672 32.167 16.8226 31.8777C15.0067 31.3174 14.8566 31.105 14.9005 29.1421C14.9115 28.6478 14.9005 28.1534 14.9005 27.2928C14.4429 27.8567 14.1647 28.1717 13.923 28.5086C10.3534 33.4927 6.79114 38.4769 3.22519 43.461C3.01285 43.7576 2.81149 44.0726 2.55887 44.3326C1.96211 44.9515 1.16032 45.0943 0.629453 44.4644C0.274323 44.0433 0.274327 43.2559 0.277988 42.6334C0.281649 42.3294 0.655084 42.0291 0.86743 41.7325C8.31051 31.3101 15.7573 20.8914 23.204 10.4691C24.6025 8.50983 25.3677 8.49884 26.7919 10.4251C31.3061 16.5298 35.8166 22.6382 40.3308 28.7466C40.6017 29.1128 40.8873 29.4644 41.5609 30.3287C41.8648 29.7684 42.0186 29.2374 42.3627 28.8931C51.4936 19.6426 60.6427 10.4141 69.7882 1.18195C69.9164 1.05011 70.0408 0.918279 70.1727 0.790105C71.4357 -0.425715 72.4462 -0.246271 73.0906 1.38337C74.8919 5.92804 76.6565 10.4874 78.4322 15.0394C80.1126 19.3387 81.7894 23.6343 83.4699 27.9336C83.6346 28.3731 83.8433 28.8089 84.1216 29.4424Z"/>
<path d="M63.0442 82.0633C60.302 82.0633 57.5598 82.0743 54.8213 82.0596C53.1738 82.0523 52.7381 81.6604 52.7344 80.071C52.7161 75.182 52.7161 70.2893 52.7344 65.4003C52.7381 63.8256 53.2177 63.3605 54.792 63.3568C60.3679 63.3458 65.9401 63.3458 71.516 63.3568C73.0244 63.3605 73.5077 63.8329 73.5114 65.3051C73.5223 70.2417 73.5223 75.1784 73.5114 80.1113C73.5077 81.6568 73.1086 82.0486 71.5453 82.056C68.7116 82.0743 65.8779 82.0596 63.0442 82.0633Z"/>
<path d="M105.598 75.1198C105.195 75.5592 104.91 76.1488 104.496 76.2587C104.017 76.3869 103.277 76.266 102.911 75.9511C101.739 74.944 100.685 73.7978 99.5903 72.6991C98.1075 71.216 96.6284 69.7291 95.142 68.2496C94.4025 67.5136 94.073 66.6896 94.937 65.8839C95.7388 65.1369 96.5186 65.4848 97.2105 66.1769C99.7221 68.6964 102.248 71.2013 104.742 73.7355C105.067 74.0651 105.247 74.5448 105.598 75.1198Z"/>
<path d="M108.387 68.8761C108.102 69.213 107.838 69.7879 107.414 69.9564C106.993 70.1212 106.231 70.0699 105.923 69.7843C104.247 68.2315 102.607 66.6275 101.094 64.9173C100.791 64.5767 100.856 63.4781 101.179 63.1339C101.508 62.7823 102.636 62.6322 102.951 62.9141C104.723 64.4925 106.359 66.221 108.021 67.9202C108.197 68.0997 108.219 68.422 108.387 68.8761Z"/>
</symbol><symbol viewBox="0 0 22 17" id="tw" xmlns="http://www.w3.org/2000/svg">
<path d="M21.4594 2.01238C20.6898 2.35373 19.8626 2.58442 18.9946 2.68815C19.8805 2.15701 20.5611 1.31598 20.8815 0.31378C20.0522 0.80564 19.1338 1.16278 18.1562 1.3552C17.3734 0.52112 16.2581 0 15.0237 0C12.6536 0 10.7319 1.92147 10.7319 4.29155C10.7319 4.6279 10.7699 4.95546 10.8431 5.2696C7.27634 5.0906 4.114 3.38203 1.99734 0.78551C1.6279 1.41935 1.41626 2.15656 1.41626 2.94309C1.41626 4.43204 2.17389 5.74563 3.32548 6.5153C2.62204 6.4929 1.96021 6.2999 1.38164 5.97846C1.38123 5.99639 1.38123 6.0143 1.38123 6.0324C1.38123 8.1118 2.86058 9.8463 4.82384 10.2406C4.46374 10.3387 4.08459 10.3912 3.69319 10.3912C3.41665 10.3912 3.1478 10.3642 2.88571 10.3142C3.43186 12.0191 5.01678 13.26 6.89479 13.2945C5.42601 14.4457 3.57552 15.1318 1.56478 15.1318C1.21837 15.1318 0.876756 15.1114 0.541016 15.0717C2.44028 16.2894 4.69616 17 7.11975 17C15.0136 17 19.3304 10.4605 19.3304 4.78918C19.3304 4.60314 19.3262 4.41805 19.3179 4.23395C20.1565 3.62886 20.8841 2.87302 21.4594 2.01238Z"/>
</symbol><symbol viewBox="0 0 10 8" id="wherearrow" xmlns="http://www.w3.org/2000/svg">
<path d="M5 8L0.669873 0.499999L9.33013 0.5L5 8Z"/>
</symbol></svg>