<svg aria-hidden="true" xmlns="http://www.w3.org/2000/svg" xmlns:xlink="http://www.w3.org/1999/xlink"><symbol viewBox="0 0 115 35" id="amazon" xmlns="http://www.w3.org/2000/svg">
<path fill-rule="evenodd" clip-rule="evenodd" d="M71.2454 27.3713C64.5717 32.346 54.8985 35.0002 46.5701 35.0002C34.8922 35.0002 24.3792 30.6321 16.4255 23.3673C15.8008 22.7959 16.3607 22.0174 17.1105 22.4623C25.6939 27.5129 36.307 30.5513 47.2699 30.5513C54.6636 30.5513 62.797 29.0043 70.2757 25.794C71.4054 25.3086 72.3502 26.5422 71.2454 27.3713Z"/>
<path fill-rule="evenodd" clip-rule="evenodd" d="M74.0209 24.161C73.1711 23.0588 68.3819 23.6402 66.2322 23.8981C65.5774 23.979 65.4775 23.4026 66.0673 22.9881C69.8816 20.2733 76.1405 21.0569 76.8703 21.9669C77.6001 22.8819 76.6804 29.2267 73.096 32.255C72.5461 32.7202 72.0211 32.4724 72.2661 31.8556C73.071 29.8233 74.8757 25.2682 74.0209 24.161Z"/>
<path fill-rule="evenodd" clip-rule="evenodd" d="M66.3827 3.82202V1.18303C66.3827 0.783614 66.6826 0.515673 67.0426 0.515673H78.7254C79.1004 0.515673 79.4003 0.788608 79.4003 1.18303V3.44282C79.3953 3.82202 79.0804 4.31749 78.5205 5.1011L72.4666 13.8422C74.7162 13.7867 77.0907 14.1254 79.1303 15.2882C79.5903 15.551 79.7152 15.9353 79.7503 16.3144V19.1304C79.7503 19.5146 79.3303 19.9646 78.8904 19.732C75.296 17.8261 70.522 17.6188 66.5477 19.7523C66.1428 19.9748 65.7178 19.5298 65.7178 19.1456V16.4712C65.7178 16.0415 65.7228 15.3084 66.1477 14.6563L73.1614 4.48438H67.0575C66.6826 4.48438 66.3827 4.21644 66.3827 3.82202ZM23.7656 20.2881H20.2112C19.8713 20.2629 19.6014 20.0051 19.5764 19.6764V1.22856C19.5764 0.859455 19.8813 0.566195 20.2612 0.566195H23.5756C23.9206 0.581294 24.1955 0.849351 24.2205 1.18291V3.59461H24.2855C25.1503 1.26398 26.775 0.177117 28.9646 0.177117C31.1891 0.177117 32.579 1.26398 33.5788 3.59461C34.4387 1.26398 36.3933 0.177117 38.4879 0.177117C39.9776 0.177117 41.6073 0.798945 42.6021 2.19428C43.7269 3.7463 43.497 6.00109 43.497 7.97784L43.4919 19.6209C43.4919 19.99 43.187 20.2883 42.8071 20.2883H39.2577C38.9029 20.2631 38.6178 19.9749 38.6178 19.6209V9.84332C38.6178 9.0647 38.6879 7.12326 38.5179 6.38529C38.253 5.14663 37.4581 4.79773 36.4282 4.79773C35.5684 4.79773 34.6686 5.37914 34.3036 6.30945C33.9387 7.23975 33.9738 8.79676 33.9738 9.84332V19.6208C33.9738 19.9899 33.6687 20.2881 33.2888 20.2881H29.7395C29.3796 20.2629 29.0996 19.9748 29.0996 19.6208L29.0946 9.84332C29.0946 7.78562 29.4295 4.75743 26.905 4.75743C24.3505 4.75743 24.4505 7.70978 24.4505 9.84332V19.6208C24.4505 19.9899 24.1456 20.2881 23.7656 20.2881ZM89.4585 0.177001C94.7324 0.177001 97.587 4.75732 97.587 10.5814C97.587 16.2083 94.4326 20.6725 89.4583 20.6725C84.2793 20.6725 81.4599 16.092 81.4599 10.3842C81.4599 4.64106 84.3144 0.177001 89.4585 0.177001ZM89.4884 3.94339C86.8688 3.94339 86.7039 7.5531 86.7039 9.80278C86.7039 12.0577 86.669 16.8705 89.4585 16.8705C92.213 16.8705 92.3429 12.9879 92.3429 10.6218C92.3429 9.0647 92.2779 7.20421 91.813 5.72804C91.4131 4.44385 90.6183 3.94339 89.4885 3.94339H89.4884ZM104.426 20.2881H100.886C100.531 20.2629 100.246 19.9748 100.246 19.6208L100.241 1.16781C100.271 0.829142 100.566 0.566195 100.926 0.566195H104.221C104.531 0.581294 104.786 0.793835 104.856 1.08187V3.90297H104.921C105.915 1.38024 107.31 0.177001 109.765 0.177001C111.359 0.177001 112.914 0.758295 113.914 2.35084C114.844 3.82701 114.844 6.30945 114.844 8.09409V19.7067C114.804 20.0303 114.509 20.2881 114.159 20.2881H110.595C110.27 20.2629 110 20.0202 109.965 19.7067V9.68653C109.965 7.66936 110.195 4.71678 107.74 4.71678C106.875 4.71678 106.08 5.3033 105.686 6.19307C105.186 7.32058 105.121 8.44287 105.121 9.68664V19.6208C105.116 19.9899 104.806 20.2881 104.426 20.2881ZM57.0694 11.4763C57.0694 12.8766 57.1044 14.0445 56.4045 15.2881C55.8397 16.2993 54.9399 16.921 53.945 16.921C52.5803 16.921 51.7804 15.8696 51.7804 14.3175C51.7804 11.2538 54.495 10.6977 57.0694 10.6977V11.4763ZM60.6537 20.2376C60.4188 20.4499 60.0789 20.4651 59.814 20.3236C58.6342 19.3326 58.4192 18.8726 57.7743 17.9272C55.8246 19.9394 54.44 20.541 51.9153 20.541C48.9209 20.541 46.5964 18.6754 46.5964 14.9394C46.5964 12.0223 48.1561 10.0354 50.3856 9.0647C52.3153 8.20524 55.0098 8.05356 57.0695 7.81593V7.3509C57.0695 6.49644 57.1344 5.4853 56.6345 4.74721C56.2046 4.08497 55.3747 3.81192 54.6399 3.81192C53.2851 3.81192 52.0804 4.51458 51.7855 5.97066C51.7254 6.29423 51.4904 6.6127 51.1655 6.62791L47.7211 6.25381C47.4313 6.18808 47.1063 5.95045 47.1912 5.50051C47.9811 1.27408 51.7604 0 55.1399 0C56.8696 0 59.1291 0.465151 60.4939 1.78976C62.2235 3.42272 62.0586 5.60156 62.0586 7.97273V13.5743C62.0586 15.2579 62.7486 15.9959 63.3983 16.9059C63.6234 17.2295 63.6733 17.6188 63.3834 17.8615C62.6585 18.4732 61.3687 19.6107 60.6589 20.2477L60.6539 20.2376H60.6537ZM10.4731 11.4763C10.4731 12.8766 10.5081 14.0445 9.80812 15.2881C9.24331 16.2993 8.34845 16.921 7.34862 16.921C5.98393 16.921 5.18898 15.8696 5.18898 14.3175C5.18898 11.2538 7.90355 10.6977 10.4731 10.6977V11.4763ZM14.0573 20.2376C13.8225 20.4499 13.4825 20.4651 13.2176 20.3236C12.0378 19.3326 11.8278 18.8726 11.178 17.9272C9.22827 19.9394 7.84865 20.541 5.31899 20.541C2.32961 20.541 0 18.6754 0 14.9394C0 12.0223 1.56475 10.0354 3.78927 9.0647C5.71899 8.20524 8.41345 8.05356 10.4731 7.81593V7.3509C10.4731 6.49644 10.5381 5.4853 10.0431 4.74721C9.60817 4.08497 8.77843 3.81192 8.04848 3.81192C6.69378 3.81192 5.48402 4.51458 5.18898 5.97066C5.12904 6.29423 4.89407 6.6127 4.57411 6.62791L1.12478 6.25381C0.834799 6.18808 0.514959 5.95045 0.594891 5.50051C1.38972 1.27408 5.16406 0 8.54346 0C10.273 0 12.5327 0.465151 13.8975 1.78976C15.627 3.42272 15.4621 5.60156 15.4621 7.97273V13.5743C15.4621 15.2579 16.152 15.9959 16.8019 16.9059C17.0319 17.2295 17.0819 17.6188 16.7919 17.8615C16.067 18.4732 14.7773 19.6107 14.0674 20.2477L14.0574 20.2376"/>
</symbol><symbol viewBox="0 0 24 16" id="arrow" xmlns="http://www.w3.org/2000/svg">
<path fill-rule="evenodd" clip-rule="evenodd" d="M0 8.00003C0 7.77272 0.0903001 7.55471 0.251035 7.39398C0.41177 7.23324 0.629774 7.14294 0.857088 7.14294H21.0724L15.6779 1.75015C15.5169 1.58921 15.4265 1.37093 15.4265 1.14333C15.4265 0.915726 15.5169 0.697447 15.6779 0.536508C15.8388 0.37557 16.0571 0.285156 16.2847 0.285156C16.5123 0.285156 16.7306 0.37557 16.8915 0.536508L23.7482 7.39321C23.828 7.47283 23.8913 7.56741 23.9346 7.67154C23.9778 7.77567 24 7.88729 24 8.00003C24 8.11277 23.9778 8.2244 23.9346 8.32852C23.8913 8.43265 23.828 8.52723 23.7482 8.60685L16.8915 15.4636C16.7306 15.6245 16.5123 15.7149 16.2847 15.7149C16.0571 15.7149 15.8388 15.6245 15.6779 15.4636C15.5169 15.3026 15.4265 15.0843 15.4265 14.8567C15.4265 14.6291 15.5169 14.4109 15.6779 14.2499L21.0724 8.85712H0.857088C0.629774 8.85712 0.41177 8.76682 0.251035 8.60608C0.0903001 8.44535 0 8.22735 0 8.00003Z"/>
</symbol><symbol viewBox="0 0 188 23" id="atlassian" xmlns="http://www.w3.org/2000/svg">
<path d="M103.178 9.19913C103.178 11.9188 104.477 14.1014 109.553 15.0567C112.583 15.6754 113.217 16.1548 113.217 17.1407C113.217 18.1266 112.583 18.7181 110.431 18.7181C107.852 18.6726 105.324 18.0046 103.073 16.7735V21.2271C104.602 21.958 106.621 22.7773 110.386 22.7773C115.696 22.7773 117.802 20.4689 117.802 17.0319L103.178 9.19913ZM117.802 17.0319C117.802 13.792 116.044 12.2724 111.079 11.2287C108.338 10.6372 107.673 10.0456 107.673 9.18894C107.673 8.11805 108.655 7.6693 110.459 7.6693C112.652 7.6693 114.815 8.31863 116.866 9.21953V4.97338C114.9 4.09945 112.758 3.66617 110.598 3.70532C105.692 3.70532 103.153 5.7893 103.153 9.19913"/>
<path d="M175.425 22.4952V8.38328L177.128 12.1297L182.842 22.4952H187.919V3.98755H183.879V15.9339L182.351 12.4663L177.761 3.98755H171.386V22.4952H175.425Z"/>
<path d="M141.279 3.98755H145.694V22.4952H141.279V3.98755Z"/>
<path d="M136.185 17.0319C136.185 13.792 134.427 12.2724 129.461 11.2287C126.721 10.6372 126.056 10.0456 126.056 9.18894C126.056 8.11805 127.038 7.6693 128.841 7.6693C131.035 7.6693 133.197 8.31863 135.248 9.21953V4.97338C133.282 4.09945 131.141 3.66617 128.981 3.70532C124.074 3.70532 121.536 5.7893 121.536 9.19913C121.536 11.9188 122.835 14.1014 127.912 15.0567C130.941 15.6754 131.575 16.1548 131.575 17.1407C131.575 18.1266 130.941 18.7181 128.789 18.7181C126.21 18.6726 123.682 18.0046 121.431 16.7735V21.2271C122.96 21.958 124.98 22.7773 128.744 22.7773C134.054 22.7773 136.161 20.4689 136.161 17.0319"/>
<path d="M77.9607 22.4952L79.3884 18.4972H73.3296V3.98755H68.8864V22.4952H77.9607Z"/>
<path d="M55.8631 7.98893V22.4952H60.3063V7.98893H65.5573V3.98755H50.9569V7.98893H55.8631Z"/>
<path d="M44.515 3.98755H38.693L32.077 22.4952H37.1434L38.0697 19.3777C40.3814 20.0424 42.8405 20.0424 45.1522 19.3777L46.0889 22.4952H51.138L44.515 3.98755ZM41.604 16.0427C40.779 16.0438 39.9582 15.9293 39.1665 15.7027L41.604 7.62176L44.0415 15.7027C43.2498 15.9293 42.429 16.0438 41.604 16.0427Z"/>
<path d="M93.602 3.98755H87.78L81.164 22.4952H86.213L87.1567 19.3777C89.4641 20.0397 91.9179 20.0397 94.2253 19.3777L95.162 22.4952H100.211L93.602 3.98755ZM90.691 16.0427C89.866 16.0438 89.0452 15.9293 88.2535 15.7027L90.691 7.62176L93.1285 15.7027C92.3368 15.9293 91.516 16.0438 90.691 16.0427Z"/>
<path d="M161.6 3.98755H155.778L149.162 22.4952H154.211L155.155 19.3777C157.462 20.0397 159.916 20.0397 162.223 19.3777L163.16 22.4952H168.209L161.6 3.98755ZM158.689 16.0427C157.864 16.0438 157.043 15.9293 156.251 15.7027L158.689 7.62176L161.126 15.7027C160.335 15.9293 159.514 16.0438 158.689 16.0427Z"/>
<path d="M6.62866 10.4964V10.4963C6.56922 10.4286 6.49399 10.3759 6.40931 10.3426C6.32463 10.3092 6.23299 10.2963 6.14211 10.3048C6.0654 10.3184 5.99339 10.3506 5.93259 10.3982C5.87179 10.4459 5.82411 10.5076 5.79386 10.5777L0.0532886 21.7807C0.0148676 21.8556 -0.00330633 21.9388 0.000494074 22.0224C0.00429448 22.1061 0.029943 22.1874 0.0750017 22.2587C0.12006 22.3299 0.183032 22.3887 0.257932 22.4295C0.332831 22.4703 0.41717 22.4917 0.502931 22.4917H8.49607C8.58968 22.4935 8.68182 22.4688 8.76131 22.4205C8.8408 22.3721 8.90422 22.3023 8.94386 22.2195C10.6232 18.8362 9.58394 13.5787 6.62866 10.4964Z"/>
<path d="M23.0001 21.7846C22.8925 21.5743 12.2448 0.773758 11.9829 0.256571C11.9487 0.184111 11.895 0.122042 11.8276 0.076935C11.7601 0.0318281 11.6815 0.00536235 11.5999 0.000339964L11.5818 0C11.4885 0.00469236 11.398 0.0325019 11.3188 0.0808058C11.2396 0.12911 11.1743 0.196316 11.1291 0.276085L11.1286 0.276561C8.24233 4.74056 7.9153 10.1304 10.254 14.6944L14.1072 22.2178C14.148 22.3009 14.2119 22.371 14.2917 22.4201C14.3716 22.4692 14.4639 22.4953 14.5583 22.4954H22.5502C22.636 22.4955 22.7204 22.4741 22.7953 22.4334C22.8703 22.3926 22.9333 22.3338 22.9784 22.2626C23.0235 22.1914 23.0491 22.11 23.0529 22.0264C23.0567 21.9427 23.0386 21.8595 23.0001 21.7846Z"/>
</symbol><symbol viewBox="0 0 28 34" id="business" xmlns="http://www.w3.org/2000/svg">
<path fill-rule="evenodd" clip-rule="evenodd" d="M19.8405 0.111887C19.0954 0.436413 18.8609 1.45119 19.3866 2.07606C19.752 2.51025 19.9358 2.54468 21.8894 2.54468H23.6612L20.1037 6.10231L16.5461 9.65986L14.2987 7.4203C12.3597 5.48801 12.0105 5.17326 11.7531 5.12619C11.3257 5.04802 10.9336 5.14344 10.6382 5.39751C10.497 5.51894 8.08595 7.6257 5.28027 10.0793C-0.230796 14.899 -0.0676189 14.7321 0.028602 15.4494C0.136035 16.2507 1.02103 16.7568 1.75573 16.4371C1.90753 16.3711 4.14089 14.4695 6.71881 12.2113L11.406 8.10553L13.6769 10.3688C15.6373 12.3226 15.9887 12.6395 16.2461 12.6866C16.9841 12.8215 16.7907 12.9826 21.2915 8.48867L25.4424 4.34433L25.4664 6.22215C25.4889 7.97408 25.5014 8.11468 25.6544 8.31937C25.9662 8.73654 26.2202 8.86663 26.723 8.86663C27.2259 8.86663 27.48 8.73646 27.7917 8.31921C27.9508 8.10617 27.9563 7.99365 27.9778 4.50242L28 0.905112L27.8169 0.633388C27.7162 0.483888 27.513 0.280233 27.3654 0.180831L27.0971 0L23.5901 0.00310145C20.8544 0.00556661 20.0297 0.029423 19.8405 0.111887ZM21.1128 12.8338C20.792 12.9755 20.4584 13.3817 20.4013 13.6999C20.376 13.8408 20.3656 18.0776 20.3782 23.115C20.4009 32.2237 20.402 32.2753 20.5651 32.4936C20.6552 32.6144 20.8278 32.787 20.9486 32.8772C21.1613 33.036 21.2622 33.0411 24.1784 33.0411C27.0946 33.0411 27.1954 33.036 27.4081 32.8772C27.5289 32.787 27.7015 32.6144 27.7917 32.4936C27.9551 32.2747 27.9556 32.2436 27.9556 22.9022C27.9556 13.5607 27.9551 13.5296 27.7917 13.3107C27.7015 13.1899 27.5289 13.0173 27.4082 12.9272C27.197 12.7694 27.0789 12.7625 24.272 12.745C21.9683 12.7305 21.3044 12.7492 21.1128 12.8338ZM10.9341 15.3785C10.6134 15.5201 10.2796 15.9263 10.2224 16.2445C10.1971 16.3855 10.1867 20.0497 10.1994 24.3874C10.2222 32.2109 10.2237 32.2758 10.3863 32.4936C10.4765 32.6144 10.6491 32.787 10.7699 32.8772C10.9826 33.036 11.0834 33.0411 13.9996 33.0411C16.9158 33.0411 17.0167 33.036 17.2294 32.8772C17.3502 32.787 17.5227 32.6144 17.6129 32.4936C17.776 32.2752 17.7769 32.2309 17.7769 24.1745C17.7769 16.1181 17.776 16.0738 17.6129 15.8554C17.5227 15.7346 17.3502 15.562 17.2295 15.4718C17.0183 15.3141 16.9002 15.3071 14.0933 15.2897C11.7896 15.2752 11.1256 15.2939 10.9341 15.3785ZM25.4507 22.9022V30.5362H24.1784H22.906V22.9022V15.2681H24.1784H25.4507V22.9022ZM15.272 24.1745V30.5362H13.9996H12.7273V24.1745V17.8128H13.9996H15.272V24.1745ZM0.755348 19.1955C0.434717 19.3371 0.100967 19.7432 0.0435523 20.0616C0.0181054 20.2025 0.00776759 23.0079 0.020491 26.2959C0.0433136 32.1915 0.0458581 32.2771 0.207604 32.4936C0.297782 32.6144 0.470344 32.787 0.591136 32.8772C0.803856 33.036 0.904689 33.0411 3.8209 33.0411C6.7371 33.0411 6.83794 33.036 7.05066 32.8772C7.17145 32.787 7.34401 32.6144 7.43419 32.4936C7.59649 32.2762 7.59816 32.2118 7.59816 26.083C7.59816 19.9542 7.59649 19.8898 7.43419 19.6724C7.34401 19.5516 7.17145 19.379 7.05073 19.2889C6.83953 19.1311 6.72144 19.1242 3.91457 19.1067C1.61084 19.0922 0.946914 19.1109 0.755348 19.1955ZM5.09324 26.083V30.5362H3.8209H2.54855V26.083V21.6298H3.8209H5.09324V26.083Z"/>
</symbol><symbol viewBox="0 0 32 32" id="cards" xmlns="http://www.w3.org/2000/svg">
<path fill-rule="evenodd" clip-rule="evenodd" d="M11.23 0.116943C10.9549 0.17603 10.4368 0.369062 10.0785 0.545938C7.78623 1.67774 6.74483 4.58608 7.8037 6.89893C7.91087 7.13312 7.99865 7.33793 7.99865 7.35401C7.99865 7.37001 7.19367 7.38378 6.20989 7.38447C4.11854 7.38609 3.66793 7.45695 2.69499 7.93718C1.08334 8.7327 0 10.4893 0 12.3071C0 13.4333 0.49116 14.7276 1.23559 15.5628L1.62527 16L1.22959 16.4424C-0.481466 18.3555 -0.382141 21.3231 1.4544 23.1597C2.89664 24.6019 5.09763 25.021 6.89893 24.1963C7.13312 24.0891 7.33793 24.0013 7.35401 24.0013C7.37001 24.0013 7.38378 24.8062 7.38447 25.7901C7.38609 27.8815 7.45695 28.3321 7.93718 29.305C8.7327 30.9167 10.4893 32 12.3071 32C13.446 32 14.7229 31.517 15.5576 30.7704L16 30.3747L16.4424 30.7704C18.3555 32.4815 21.3231 32.3821 23.1597 30.5456C24.6019 29.1034 25.021 26.9024 24.1963 25.1011C24.0891 24.8669 24.0013 24.6621 24.0013 24.646C24.0013 24.63 24.8062 24.6162 25.7901 24.6155C27.8813 24.6139 28.3462 24.5415 29.3073 24.0677C30.9101 23.2775 32 21.5068 32 19.6929C32 18.5667 31.5088 17.2724 30.7644 16.4372L30.3747 16L30.7704 15.5576C32.4815 13.6445 32.3821 10.6769 30.5456 8.84026C29.1034 7.39809 26.9024 6.97902 25.1011 7.8037C24.8669 7.91087 24.6621 7.99865 24.646 7.99865C24.63 7.99865 24.6162 7.19367 24.6155 6.20989C24.6139 4.11854 24.5431 3.66793 24.0628 2.69499C23.2629 1.07433 21.5209 0 19.6929 0C18.5667 0 17.2724 0.49116 16.4372 1.23559L16 1.62527L15.5576 1.22959C14.4322 0.222961 12.75 -0.209497 11.23 0.116943ZM13.3518 2.69299C13.8304 2.92472 14.3023 3.39711 14.5422 3.88458C14.7201 4.24602 14.7319 4.35396 14.7556 5.83098L14.7805 7.39463L13.2168 7.3697C11.7398 7.34608 11.6319 7.33423 11.2704 7.15636C9.8999 6.48194 9.43828 4.82435 10.2694 3.56144C10.5569 3.1246 11.0779 2.72438 11.5682 2.56374C12.0382 2.40979 12.895 2.47188 13.3518 2.69299ZM20.4446 2.58351C21.0316 2.77308 21.5232 3.18969 21.8411 3.76717L22.1164 4.26726V8.61414V12.961L21.8535 13.4458C21.5612 13.985 21.3207 14.2175 20.7398 14.5219C20.3578 14.7222 20.3034 14.7286 18.7889 14.7553L17.231 14.7827V9.66232C17.231 5.13909 17.2455 4.49899 17.3559 4.17378C17.7995 2.86694 19.1575 2.16775 20.4446 2.58351ZM13.0587 9.96937C13.6458 10.1589 14.1373 10.5755 14.4552 11.153L14.7306 11.6531L14.7566 13.2136L14.7828 14.7741L9.52499 14.7523L4.26726 14.7306L3.88258 14.5401C1.88432 13.5504 2.05211 10.7082 4.15224 9.97345C4.44944 9.86951 5.07293 9.85196 8.58606 9.84881C12.1455 9.84558 12.7238 9.8612 13.0587 9.96937ZM28.1235 10.0788C28.6021 10.3106 29.074 10.783 29.3139 11.2704C29.5844 11.82 29.5844 12.7942 29.3139 13.3437C29.0738 13.8318 28.6035 14.3021 28.1154 14.5422C27.7541 14.72 27.6457 14.7319 26.1748 14.7555L24.6168 14.7803V13.3636C24.6168 12.3891 24.6496 11.8381 24.7217 11.5983C24.943 10.863 25.6023 10.1913 26.3399 9.9496C26.8099 9.79565 27.6667 9.85773 28.1235 10.0788ZM7.36962 18.7889C7.34608 20.2599 7.33416 20.3683 7.15636 20.7296C6.91624 21.2176 6.44593 21.688 5.95785 21.9281C5.64287 22.0831 5.45953 22.1164 4.92121 22.1164C4.38289 22.1164 4.19955 22.0831 3.88458 21.9281C2.51404 21.2537 2.05242 19.5961 2.88356 18.3332C3.17323 17.893 3.69808 17.4916 4.18232 17.3401C4.38951 17.2752 4.99599 17.2395 5.94631 17.2361L7.39447 17.231L7.36962 18.7889ZM14.7523 22.4819L14.7306 27.7327L14.4677 28.2175C14.1748 28.7578 13.9331 28.9909 13.3539 29.2919C13.0183 29.4663 12.8657 29.4959 12.3071 29.4953C11.773 29.4946 11.5826 29.4603 11.2684 29.3079C10.7805 29.0712 10.3183 28.6104 10.0741 28.1174L9.88359 27.7327L9.86181 23.5397C9.84258 19.8482 9.85489 19.3012 9.96429 18.9667C10.2164 18.1959 10.7737 17.6267 11.5381 17.3593C11.8034 17.2664 12.2203 17.2374 13.329 17.2347L14.7741 17.231L14.7523 22.4819ZM27.8305 17.3552C28.4177 17.5449 28.909 17.9614 29.2267 18.5389C29.4825 19.0039 29.5016 19.0848 29.4989 19.6929C29.4965 20.2472 29.4649 20.4067 29.2919 20.7398C28.9909 21.319 28.7578 21.5606 28.2175 21.8535L27.7327 22.1164H23.3859H19.039L18.6543 21.9259C18.1634 21.6828 17.7025 21.2216 17.4606 20.7316C17.2808 20.3675 17.2692 20.2635 17.2451 18.7889L17.2197 17.231H22.3327C26.8289 17.231 27.4922 17.246 27.8305 17.3552ZM20.7296 24.8436C21.2176 25.0838 21.688 25.5541 21.9281 26.0422C22.0831 26.3571 22.1164 26.5405 22.1164 27.0788C22.1164 27.8498 21.9365 28.3014 21.426 28.8118C20.9155 29.3223 20.4639 29.5023 19.6929 29.5023C19.1546 29.5023 18.9713 29.469 18.6563 29.3139C18.1682 29.0738 17.6979 28.6035 17.4578 28.1154C17.2799 27.754 17.2681 27.646 17.2444 26.169L17.2195 24.6054L18.7832 24.6303C20.2602 24.6539 20.3681 24.6658 20.7296 24.8436Z"/>
</symbol><symbol viewBox="0 0 32 32" id="communication" xmlns="http://www.w3.org/2000/svg">
<path fill-rule="evenodd" clip-rule="evenodd" d="M25.4676 0.0296443C25.4042 0.0567139 22.9025 1.44003 19.9083 3.10381L14.4644 6.12884H8.86978C4.09422 6.12884 3.209 6.14607 2.8231 6.24658C1.49669 6.5921 0.475044 7.61706 0.127676 8.95062C-0.0443543 9.6109 -0.0417399 17.422 0.130675 18.0839C0.476197 19.4103 1.50115 20.432 2.83471 20.7793C3.11618 20.8527 3.63719 20.8941 4.2784 20.8941H5.28159L7.03273 26.1495C8.89093 31.726 8.87147 31.6793 9.41924 31.8862C9.76484 32.0168 14.9461 31.9963 15.2649 31.8631C15.5907 31.7269 15.9127 31.34 15.9746 31.0101C16.0218 30.7587 14.8693 23.4903 14.6914 22.9166C14.5274 22.3881 13.8794 22.0452 13.2631 22.1608C12.8874 22.2313 12.4246 22.6919 12.3545 23.0652C12.3183 23.2582 12.4591 24.2849 12.8096 26.3848C13.0887 28.0568 13.317 29.4434 13.317 29.466C13.317 29.4886 12.7372 29.5071 12.0285 29.5071H10.74L9.30497 25.2006L7.86997 20.8941H11.1672H14.4644L19.9468 23.9487C25.3469 26.9575 25.4357 27.0034 25.8657 27.0056C26.3378 27.008 26.5858 26.8798 26.8855 26.4784C27.0392 26.2728 27.0448 26.1615 27.0666 22.9072L27.0891 19.5483L27.7587 19.3392C29.8818 18.6764 31.4579 16.8709 31.8956 14.6006C32.4667 11.6372 30.6404 8.58341 27.7587 7.68373L27.0891 7.47463L27.0666 4.11569C27.0448 0.861419 27.0392 0.750142 26.8855 0.544505C26.6221 0.191754 26.3485 0.0337203 25.9539 0.0063431C25.7499 -0.00788383 25.531 0.0026516 25.4676 0.0296443ZM24.6217 13.5017V23.7199L20.3171 21.3278L16.0124 18.9358L15.9913 14.7681C15.9706 10.6955 15.9666 10.5955 15.8116 10.388C15.5103 9.9845 15.2645 9.85861 14.7782 9.85861C14.2919 9.85861 14.0461 9.9845 13.7448 10.388C13.5901 10.595 13.5857 10.6981 13.5649 14.5183L13.5437 18.4364L8.39883 18.4156C3.33904 18.3951 3.25053 18.3921 3.04174 18.2362C2.92492 18.149 2.75804 17.9821 2.67084 17.8653C2.51526 17.657 2.51226 17.5744 2.51226 13.5115C2.51226 9.44856 2.51526 9.36597 2.67084 9.15764C2.75804 9.04083 2.92492 8.87395 3.04174 8.78674C3.25129 8.63025 3.33189 8.62786 9.18915 8.60625L15.1242 8.58441L19.8537 5.94282C22.455 4.48998 24.5919 3.29722 24.6025 3.29238C24.613 3.28746 24.6217 7.88168 24.6217 13.5017ZM27.5616 10.252C27.78 10.3627 28.1554 10.6409 28.3959 10.8703C29.9109 12.3153 29.9109 14.7076 28.3959 16.1526C28.0374 16.4945 27.296 16.9721 27.1235 16.9721C27.101 16.9721 27.0826 15.4148 27.0826 13.5115C27.0826 11.6081 27.101 10.0509 27.1235 10.0509C27.1462 10.0509 27.3433 10.1414 27.5616 10.252Z"/>
</symbol><symbol viewBox="0 0 32 33" id="development" xmlns="http://www.w3.org/2000/svg">
<path fill-rule="evenodd" clip-rule="evenodd" d="M14.3464 0.0837633C7.97421 0.746383 2.51294 5.26474 0.68162 11.3892C-2.20743 21.0513 4.40914 30.9237 14.4507 31.9341C19.7113 32.4635 25.0164 30.2574 28.3792 26.142C33.2069 20.2338 33.2069 11.7798 28.3792 5.87164C25 1.73616 19.6552 -0.468266 14.3464 0.0837633ZM16.7817 3.08333C18.041 3.72579 19.3015 5.93552 20.0492 8.8111C20.1922 9.36136 20.3096 9.82027 20.31 9.83081C20.3104 9.84136 18.3706 9.85005 15.9995 9.85005H11.6883L11.7357 9.63842C12.1741 7.67965 12.9385 5.72873 13.7181 4.57834C14.748 3.05863 15.7627 2.56347 16.7817 3.08333ZM11.2928 3.81706C10.555 5.07073 9.99831 6.52256 9.49608 8.50327L9.16431 9.81157L6.54492 9.83181L3.92561 9.85206L4.17665 9.40854C5.52275 7.03011 7.52122 5.12914 9.97646 3.89171C10.5142 3.62074 11.4605 3.21039 11.6678 3.15837C11.676 3.15629 11.5073 3.45266 11.2928 3.81706ZM21.7769 3.75203C23.8339 4.68601 25.9512 6.5241 27.2941 8.54175C27.6497 9.07607 28.0066 9.7106 28.0066 9.8085C28.0066 9.83135 26.8292 9.85005 25.39 9.85005C22.9202 9.85005 22.7734 9.84228 22.7734 9.7113C22.7734 9.63503 22.6544 9.08962 22.5091 8.49919C22.0625 6.68633 21.4315 5.04441 20.7108 3.81991L20.3226 3.16044L20.7977 3.34176C21.0589 3.4415 21.4996 3.6262 21.7769 3.75203ZM8.74172 12.8707C8.64737 13.5951 8.64737 18.4185 8.74172 19.1429L8.81437 19.7008H5.90269H2.99101L2.91606 19.5036C2.5819 18.6247 2.37634 16.0617 2.52764 14.66C2.6153 13.847 2.86257 12.5415 2.95815 12.3869C2.98617 12.3415 4.12917 12.3128 5.90916 12.3128H8.81437L8.74172 12.8707ZM20.7307 12.4859C20.8093 12.8435 20.9264 14.9602 20.9262 16.0212C20.926 17.0824 20.8211 18.9326 20.7317 19.4507L20.6885 19.7008H15.999H11.3094L11.2713 19.5277C11.1923 19.1687 11.0756 17.0518 11.0764 15.9924C11.0771 14.9084 11.192 12.8248 11.2697 12.4859L11.3094 12.3128H16.001H20.6926L20.7307 12.4859ZM29.1416 12.736C29.428 13.8826 29.499 14.5329 29.499 16.0068C29.499 17.4807 29.428 18.131 29.1416 19.2776L29.0456 19.6624L26.1165 19.6825L23.1874 19.7026L23.2602 19.1438C23.3546 18.4182 23.3546 13.5954 23.2602 12.8698L23.1874 12.311L26.1165 12.3311L29.0456 12.3512L29.1416 12.736ZM9.49608 23.5103C9.99747 25.4876 10.5551 26.9431 11.2891 28.1901L11.6751 28.846L11.1637 28.6539C8.3089 27.5812 5.72877 25.3475 4.17665 22.6051L3.92561 22.1615L6.54492 22.1818L9.16431 22.202L9.49608 23.5103ZM20.2826 22.2982C20.2615 22.3723 20.1352 22.8485 20.002 23.3564C19.2717 26.1416 18.0298 28.2834 16.7623 28.9439C16.3048 29.1822 15.6972 29.1822 15.2397 28.9439C13.9625 28.2784 12.6591 26.005 11.9541 23.2127C11.8458 22.7838 11.74 22.3723 11.719 22.2982C11.683 22.1711 11.9234 22.1635 16.001 22.1635C20.0787 22.1635 20.3189 22.1711 20.2826 22.2982ZM28.0066 22.2051C28.0066 22.303 27.6497 22.9375 27.2941 23.4719C25.7319 25.819 23.3836 27.6994 20.7977 28.6741L20.3226 28.8532L20.7108 28.1937C21.4315 26.9692 22.0625 25.3273 22.5091 23.5144C22.6544 22.924 22.7734 22.3786 22.7734 22.3023C22.7734 22.1713 22.9202 22.1635 25.39 22.1635C26.8292 22.1635 28.0066 22.1822 28.0066 22.2051Z"/>
</symbol><symbol viewBox="0 0 166 33" id="dropbox" xmlns="http://www.w3.org/2000/svg">
<g clip-path="url(#hclip0_0_1821)">
<path d="M19.256 6.20112L9.628 12.4022L19.256 18.6034L9.628 24.8045L0 18.5698L9.628 12.3687L0 6.20112L9.628 0L19.256 6.20112ZM9.5782 26.7989L19.2062 20.5978L28.8342 26.7989L19.2062 33L9.5782 26.7989ZM19.256 18.5698L28.884 12.3687L19.256 6.20112L28.8342 0L38.4622 6.20112L28.8342 12.4022L38.4622 18.6034L28.8342 24.8045L19.256 18.5698Z"/>
<path d="M46.0156 6.20105H53.801C58.7644 6.20105 62.8646 9.10049 62.8646 15.7206V17.1117C62.8646 23.7821 59.03 26.7821 53.9504 26.7821H46.0156V6.20105ZM50.3648 9.93848V23.0279H53.7014C56.5234 23.0279 58.4158 21.1675 58.4158 17.0279V15.9385C58.4158 11.7988 56.4238 9.93848 53.552 9.93848H50.3648ZM65.172 10.1396H68.658L69.2224 14.0111C69.8864 11.3798 71.5796 9.972 74.6506 9.972H75.7296V14.4133H73.9368C70.401 14.4133 69.5378 15.6536 69.5378 19.1731V26.8323H65.2384V10.1396H65.172ZM76.5928 18.8212V18.3519C76.5928 12.7709 80.1286 9.7206 84.9426 9.7206C89.8562 9.7206 93.2924 12.7709 93.2924 18.3519V18.8212C93.2924 24.3016 89.9558 27.2513 84.9426 27.2513C79.614 27.2011 76.5928 24.3184 76.5928 18.8212ZM88.8934 18.7709V18.3519C88.8934 15.2513 87.3496 13.391 84.8928 13.391C82.4858 13.391 80.8922 15.1005 80.8922 18.3519V18.7709C80.8922 21.7709 82.436 23.4804 84.8928 23.4804C87.3496 23.4301 88.8934 21.7709 88.8934 18.7709ZM95.55 10.1396H99.1356L99.5506 13.2904C100.414 11.1787 102.256 9.7206 104.979 9.7206C109.179 9.7206 111.951 12.7709 111.951 18.4189V18.8882C111.951 24.3687 108.88 27.2681 104.979 27.2681C102.373 27.2681 100.58 26.0781 99.7 24.1675V32.5977H95.5002L95.55 10.1396ZM107.585 18.7709V18.4022C107.585 15.0837 105.892 13.4413 103.634 13.4413C101.227 13.4413 99.6336 15.3016 99.6336 18.4022V18.7206C99.6336 21.6703 101.177 23.5307 103.584 23.5307C106.058 23.4804 107.585 21.8882 107.585 18.7709ZM118.309 23.7485L117.943 26.7988H114.258V4.55859H118.458V13.0893C119.388 10.9105 121.23 9.7206 123.836 9.7206C127.787 9.77088 130.709 12.5195 130.709 18.0502V18.5698C130.709 24.1005 127.937 27.2681 123.737 27.2681C120.965 27.2011 119.172 25.9105 118.309 23.7485ZM126.293 18.5698V18.1508C126.293 15.1005 124.65 13.391 122.342 13.391C119.985 13.391 118.342 15.3016 118.342 18.2011V18.5698C118.342 21.6703 119.935 23.4804 122.293 23.4804C124.816 23.4804 126.293 21.8882 126.293 18.5698ZM132.551 18.8212V18.3519C132.551 12.7709 136.087 9.7206 140.901 9.7206C145.815 9.7206 149.251 12.7709 149.251 18.3519V18.8212C149.251 24.3016 145.865 27.2513 140.901 27.2513C135.573 27.2011 132.551 24.3184 132.551 18.8212ZM144.885 18.7709V18.3519C144.885 15.2513 143.341 13.391 140.885 13.391C138.478 13.391 136.884 15.1005 136.884 18.3519V18.7709C136.884 21.7709 138.428 23.4804 140.885 23.4804C143.358 23.4301 144.885 21.7709 144.885 18.7709ZM154.878 18.1508L149.085 10.1396H154.048L157.385 15.1508L160.771 10.1396H165.685L159.809 18.1005L166 26.7988H161.137L157.352 21.2681L153.667 26.7988H148.587L154.878 18.1508Z"/>
</g>
<defs>
<clipPath id="hclip0_0_1821">
<rect width="166" height="33"/>
</clipPath>
</defs>
</symbol><symbol viewBox="0 0 8 15" id="fb" xmlns="http://www.w3.org/2000/svg">
<path d="M6.01383 0.943604C6.25 0.969467 6.45993 0.969467 6.6961 0.99533C6.85355 0.99533 7.01099 1.02119 7.16844 1.04706C7.16844 1.74536 7.16844 2.41781 7.16844 3.14198C7.11595 3.14198 7.03723 3.14198 6.98475 3.14198C6.53865 3.14198 6.09256 3.14198 5.64646 3.16784C5.09539 3.19371 4.78049 3.4782 4.75425 4.02133C4.72801 4.59032 4.75425 5.15932 4.75425 5.75417C5.51524 5.75417 6.30248 5.75417 7.08972 5.75417C6.98475 6.53007 6.87979 7.30597 6.77482 8.08186C6.09255 8.08186 5.43652 8.08186 4.75425 8.08186C4.75425 10.0733 4.75425 12.0648 4.75425 14.0563C3.94078 14.0563 3.12731 14.0563 2.31383 14.0563C2.31383 12.0648 2.31383 10.0992 2.31383 8.08186C1.63156 8.08186 0.949298 8.08186 0.267029 8.08186C0.267029 7.30597 0.267029 6.53007 0.267029 5.75417C0.949298 5.75417 1.60532 5.75417 2.31383 5.75417C2.31383 5.67658 2.31383 5.65072 2.31383 5.59899C2.31383 4.97827 2.31383 4.38342 2.31383 3.7627C2.34007 3.03853 2.57624 2.36608 3.10107 1.79709C3.49468 1.38328 3.99326 1.15051 4.57057 1.02119C4.72802 0.99533 4.88546 0.969467 5.01666 0.943604C5.33156 0.943604 5.6727 0.943604 6.01383 0.943604Z"/>
</symbol><symbol viewBox="0 0 32 32" id="flyers" xmlns="http://www.w3.org/2000/svg">
<path fill-rule="evenodd" clip-rule="evenodd" d="M5.86838 2.34859C2.98716 3.6355 0.541275 4.75383 0.433063 4.8339C0.324779 4.9139 0.183068 5.0914 0.11814 5.22825C0.00964262 5.45696 0 6.5188 0 18.2768C0 29.9941 0.0099283 31.0972 0.117212 31.3233C0.278994 31.6644 0.650987 31.9298 1.02641 31.9721C1.31326 32.0044 1.73161 31.8322 6.3618 29.7744L11.386 27.5417L15.8358 29.7662C19.2383 31.4672 20.347 31.9908 20.5467 31.9908C20.7345 31.9908 22.2821 31.3364 26.0643 29.6578C28.9554 28.3746 31.4207 27.2515 31.5429 27.1619C32.0363 26.8 31.9994 27.8877 31.9994 13.7054C31.9994 1.9881 31.9894 0.884981 31.8822 0.658914C31.7204 0.317849 31.3484 0.0524256 30.973 0.0101407C30.6861 -0.0222158 30.2678 0.150066 25.6376 2.20781L20.6134 4.44055L16.1636 2.21603C12.2999 0.284421 11.6738 -0.00743029 11.4103 0.000140987C11.1774 0.00678371 9.89088 0.551916 5.86838 2.34859ZM10.2855 14.2296V25.5391L6.41059 27.2606C4.27935 28.2074 2.47945 29.0036 2.41067 29.0298C2.29196 29.0751 2.28567 28.5092 2.28567 17.7603V6.44301L6.23202 4.68519C8.40248 3.71842 10.2025 2.92573 10.2319 2.92365C10.2614 2.92165 10.2855 8.00927 10.2855 14.2296ZM29.7137 14.2296V25.5391L25.8388 27.2606C23.7076 28.2074 21.9076 29.0036 21.8389 29.0298C21.7201 29.0751 21.7139 28.5092 21.7139 17.7603V6.44301L25.6602 4.68519C27.8307 3.71842 29.6306 2.92573 29.6601 2.92365C29.6896 2.92165 29.7137 8.00927 29.7137 14.2296ZM19.4282 17.7057V28.9911L15.9997 27.2766L12.5712 25.5621V14.2766V2.99108L15.9997 4.70562L19.4282 6.42016V17.7057Z"/>
</symbol><symbol viewBox="0 0 101 33" id="google" xmlns="http://www.w3.org/2000/svg">
<path d="M43.2232 17.3659C43.2232 22.1137 39.4812 25.6122 34.8889 25.6122C30.2967 25.6122 26.5547 22.1137 26.5547 17.3659C26.5547 12.5847 30.2967 9.11963 34.8889 9.11963C39.4812 9.11963 43.2232 12.5847 43.2232 17.3659ZM39.5748 17.3659C39.5748 14.399 37.4061 12.3691 34.8889 12.3691C32.3718 12.3691 30.203 14.399 30.203 17.3659C30.203 20.3031 32.3718 22.3628 34.8889 22.3628C37.4061 22.3628 39.5748 20.2994 39.5748 17.3659Z"/>
<path d="M61.2018 17.3662C61.2018 22.1139 57.4598 25.6125 52.8676 25.6125C48.2753 25.6125 44.5333 22.1139 44.5333 17.3662C44.5333 12.5887 48.2753 9.11987 52.8676 9.11987C57.4598 9.11987 61.2018 12.585 61.2018 17.3662ZM57.5535 17.3662C57.5535 14.3993 55.3847 12.3693 52.8676 12.3693C50.3504 12.3693 48.1817 14.3993 48.1817 17.3662C48.1817 20.3033 50.3504 22.363 52.8676 22.363C55.3847 22.363 57.5535 20.2996 57.5535 17.3662Z"/>
<path d="M78.4317 9.61783V24.4225C78.4317 30.5124 74.8134 32.9997 70.5357 32.9997C66.5091 32.9997 64.0856 30.3265 63.1716 28.1404L66.348 26.828C66.9136 28.1702 68.2995 29.754 70.532 29.754C73.2701 29.754 74.9669 28.0772 74.9669 24.9207V23.7347H74.8396C74.023 24.7348 72.4498 25.6085 70.4646 25.6085C66.3105 25.6085 62.5049 22.017 62.5049 17.3957C62.5049 12.7409 66.3105 9.11963 70.4646 9.11963C72.446 9.11963 74.0193 9.99334 74.8396 10.9637H74.9669V9.62154H78.4317V9.61783ZM75.2254 17.3957C75.2254 14.492 73.2739 12.3691 70.7904 12.3691C68.2733 12.3691 66.1645 14.492 66.1645 17.3957C66.1645 20.2696 68.2733 22.3628 70.7904 22.3628C73.2739 22.3628 75.2254 20.2696 75.2254 17.3957Z"/>
<path d="M84.1433 0.940674V25.107H80.5848V0.940674H84.1433Z"/>
<path d="M98.0106 20.0805L100.842 21.9544C99.9284 23.2965 97.7259 25.6091 93.9203 25.6091C89.2006 25.6091 85.6759 21.9878 85.6759 17.3628C85.6759 12.4588 89.2306 9.11646 93.512 9.11646C97.8233 9.11646 99.9322 12.5221 100.621 14.3624L101 15.2993L89.8936 19.8649C90.7439 21.5194 92.0661 22.3633 93.9203 22.3633C95.7781 22.3633 97.0667 21.4562 98.0106 20.0805ZM89.2943 17.1137L96.7183 14.0538C96.31 13.024 95.0814 12.3064 93.6356 12.3064C91.7814 12.3064 89.2006 13.9311 89.2943 17.1137Z"/>
<path d="M13.0838 15.2211V11.7225H24.9615C25.0777 12.3323 25.1376 13.0535 25.1376 13.8343C25.1376 16.4591 24.4147 19.7049 22.0848 22.0174C19.8187 24.3597 16.9232 25.6089 13.0876 25.6089C5.97818 25.6089 0 19.861 0 12.8044C0 5.74787 5.97818 0 13.0876 0C17.0206 0 19.8224 1.53177 21.9275 3.52829L19.4403 5.99697C17.9308 4.59161 15.8856 3.49854 13.0838 3.49854C7.89225 3.49854 3.83188 7.65144 3.83188 12.8044C3.83188 17.9575 7.89225 22.1104 13.0838 22.1104C16.4512 22.1104 18.3691 20.7682 19.5977 19.5487C20.594 18.5598 21.2495 17.147 21.508 15.2174L13.0838 15.2211Z"/>
</symbol><symbol viewBox="0 0 124 35" id="hubspot" xmlns="http://www.w3.org/2000/svg">
<path d="M13.3675 5.65723V15.292H4.30135V5.65723H0V28.6567H4.30251V19.3346H13.3663V28.6567H17.67V5.65723H13.3675ZM31.4415 21.2229C31.4415 22.1448 31.0665 23.0289 30.3988 23.6807C29.7311 24.3326 28.8256 24.6988 27.8813 24.6988C26.9371 24.6988 26.0316 24.3326 25.3639 23.6807C24.6962 23.0289 24.3211 22.1448 24.3211 21.2229V11.371H20.2399V21.2229C20.2399 23.1996 21.0441 25.0953 22.4758 26.4931C23.9074 27.8908 25.8491 28.676 27.8738 28.676C29.8984 28.676 31.8401 27.8908 33.2718 26.4931C34.7034 25.0953 35.5077 23.1996 35.5077 21.2229V11.371H31.4415V21.2229ZM61.6826 12.3862C61.6826 10.366 63.0508 9.72599 64.5494 9.72599C65.758 9.72599 67.3533 10.6241 68.3978 11.7132L71.0701 8.6369C69.7357 6.87479 67.0296 5.65723 64.8137 5.65723C60.3854 5.65723 57.1833 8.18898 57.1833 12.3862C57.1833 20.1736 66.9318 17.7021 66.9318 22.0608C66.9318 23.4045 65.595 24.5914 64.065 24.5914C61.6511 24.5914 60.8686 23.4397 59.7601 22.221L56.7932 25.2325C58.6912 27.5062 61.0317 28.6613 63.8344 28.6613C68.0414 28.6613 71.4252 26.0988 71.4252 22.0926C71.4252 13.448 61.6756 16.1344 61.6756 12.3862H61.6826ZM121.992 24.9824C119.581 24.9824 118.895 23.9638 118.895 22.4041V15.4978H122.644V11.9985H118.895V7.38182L114.757 9.19509V23.2624C114.757 26.8605 117.3 28.6738 120.786 28.6738C121.333 28.6829 121.881 28.6397 122.418 28.5464L123.428 24.9176C122.973 24.9483 122.45 24.979 121.992 24.979V24.9824ZM46.9772 11.4858C44.9557 11.4858 43.5445 12.0588 42.1798 13.365V5.79479H38.0927V19.8269C38.0927 25.0791 41.9818 28.6783 46.353 28.6783C51.2017 28.6783 55.4669 25.0154 55.4669 20.0838C55.4669 15.2135 51.5417 11.4892 46.9772 11.4892V11.4858ZM46.9515 24.6619C46.3424 24.6619 45.7393 24.5447 45.1765 24.3171C44.6137 24.0895 44.1024 23.756 43.6717 23.3355C43.241 22.9149 42.8993 22.4157 42.6662 21.8663C42.4331 21.3168 42.3131 20.7279 42.3131 20.1332C42.3131 19.5385 42.4331 18.9496 42.6662 18.4002C42.8993 17.8508 43.241 17.3515 43.6717 16.931C44.1024 16.5105 44.6137 16.1769 45.1765 15.9493C45.7393 15.7218 46.3424 15.6046 46.9515 15.6046C48.1817 15.6046 49.3616 16.0817 50.2314 16.931C51.1013 17.7803 51.59 18.9322 51.59 20.1332C51.59 21.3343 51.1013 22.4862 50.2314 23.3355C49.3616 24.1847 48.1817 24.6619 46.9515 24.6619ZM91.3647 19.8746C91.3647 14.9339 87.1087 11.2801 82.2508 11.2801C77.8808 11.2801 73.9904 14.8782 73.9904 20.1315V34.1716H78.0775V26.5911C79.4399 27.895 80.8535 28.4703 82.8726 28.4703C87.4371 28.4703 91.3635 24.746 91.3635 19.8746H91.3647ZM87.4942 19.8246C87.4942 21.0256 87.0055 22.1775 86.1356 23.0268C85.2657 23.8761 84.0859 24.3532 82.8557 24.3532C81.6255 24.3532 80.4457 23.8761 79.5758 23.0268C78.706 22.1775 78.2173 21.0256 78.2173 19.8246C78.2173 18.6235 78.706 17.4716 79.5758 16.6224C80.4457 15.7731 81.6255 15.296 82.8557 15.296C84.0859 15.296 85.2657 15.7731 86.1356 16.6224C87.0055 17.4716 87.4942 18.6235 87.4942 19.8246Z"/>
<path d="M104.572 11.0865V7.07685C105.114 6.82921 105.574 6.43618 105.897 5.94349C106.22 5.4508 106.392 4.87873 106.395 4.29386V4.20177C106.395 2.49651 104.979 1.11411 103.233 1.11411H103.138C102.3 1.11411 101.495 1.43941 100.902 2.01846C100.309 2.59751 99.9758 3.38287 99.9758 4.20177V4.29386C99.9786 4.87873 100.151 5.4508 100.474 5.94349C100.797 6.43618 101.257 6.82921 101.799 7.07685V11.0865C100.239 11.3197 98.7705 11.9511 97.541 12.9168L86.2776 4.35184C86.358 4.06876 86.3999 3.77773 86.4045 3.48556C86.4059 2.79744 86.1982 2.12437 85.8078 1.5515C85.4173 0.978622 84.8616 0.53168 84.2109 0.267203C83.5602 0.00272603 82.8438 -0.0674034 82.1523 0.0656852C81.4608 0.198774 80.8252 0.529101 80.3261 1.01488C79.8269 1.50067 79.4864 2.12008 79.3479 2.79478C79.2093 3.46947 79.2788 4.16914 79.5475 4.80527C79.8163 5.4414 80.2723 5.98543 80.8578 6.36852C81.4432 6.75162 82.132 6.95658 82.8368 6.95748C83.4534 6.95465 84.0585 6.79393 84.5915 6.49138L95.6826 14.9177C94.6862 16.3872 94.1664 18.1158 94.191 19.8779C94.2155 21.6401 94.7831 23.3542 95.82 24.7968L92.4467 28.0914C92.174 28.0063 91.8899 27.9611 91.6037 27.9573C91.0251 27.9577 90.4597 28.1256 89.9788 28.4397C89.498 28.7538 89.1233 29.2 88.9021 29.7219C88.6809 30.2439 88.6232 30.8181 88.7361 31.3721C88.8491 31.926 89.1278 32.4349 89.5369 32.8343C89.946 33.2337 90.4671 33.5057 91.0345 33.616C91.6019 33.7263 92.1901 33.67 92.7247 33.454C93.2593 33.2381 93.7163 32.8722 94.038 32.4028C94.3597 31.9333 94.5317 31.3813 94.5322 30.8164C94.5284 30.5369 94.4821 30.2595 94.3948 29.9934L97.732 26.734C98.8202 27.552 100.086 28.1159 101.432 28.3826C102.778 28.6493 104.168 28.6116 105.497 28.2725C106.826 27.9334 108.057 27.3019 109.098 26.4263C110.138 25.5507 110.959 24.4543 111.498 23.221C112.037 21.9878 112.28 20.6504 112.208 19.3114C112.135 17.9724 111.75 16.6672 111.082 15.4959C110.413 14.3247 109.479 13.3183 108.351 12.554C107.222 11.7897 105.93 11.2877 104.572 11.0865ZM103.188 24.2739C102.572 24.2905 101.958 24.1862 101.383 23.9672C100.808 23.7482 100.284 23.4189 99.842 22.9989C99.3998 22.5788 99.0483 22.0765 98.8082 21.5216C98.5682 20.9667 98.4445 20.3704 98.4445 19.768C98.4445 19.1656 98.5682 18.5694 98.8082 18.0144C99.0483 17.4595 99.3998 16.9572 99.842 16.5371C100.284 16.1171 100.808 15.7878 101.383 15.5688C101.958 15.3499 102.572 15.2456 103.188 15.2621C104.384 15.303 105.516 15.7952 106.347 16.6351C107.178 17.4749 107.643 18.5969 107.644 19.7647C107.644 20.9325 107.181 22.0549 106.351 22.8956C105.52 23.7363 104.388 24.2296 103.193 24.2716"/>
</symbol><symbol viewBox="0 0 32 23" id="illustrations" xmlns="http://www.w3.org/2000/svg">
<path fill-rule="evenodd" clip-rule="evenodd" d="M4.91163 0.105544C4.68662 0.160119 4.33388 0.290128 4.12787 0.394563C3.64826 0.637579 2.92872 1.35641 2.68642 1.83451C2.28246 2.63171 2.28703 2.54363 2.28589 9.54238L2.28482 15.9829L1.51105 16.0071C0.800079 16.0293 0.71693 16.0468 0.485344 16.2237C0.0379572 16.5653 -0.0011881 16.7348 2.62648e-05 18.3279C0.0011692 19.88 0.0741027 20.3688 0.400553 21.0131C0.642211 21.49 1.36204 22.2098 1.839 22.4515C2.66699 22.8711 1.9548 22.8509 15.9724 22.852C24.4295 22.8527 28.9702 22.8281 29.2229 22.7802C29.8603 22.6593 30.466 22.3298 30.9614 21.8344C31.8231 20.9727 31.9985 20.3807 32 18.3279C32.0012 16.7348 31.962 16.5653 31.5147 16.2237C31.2831 16.0468 31.1999 16.0293 30.4889 16.0071L29.7152 15.9829L29.7141 9.54238C29.713 2.56978 29.716 2.62857 29.3247 1.85652C29.2272 1.66415 28.9665 1.31127 28.7452 1.07225C28.2907 0.58129 27.5781 0.184621 26.9374 0.0658276C26.6913 0.0201817 22.7272 -0.00339126 15.9367 0.000394698C7.13899 0.00532359 5.25066 0.0233248 4.91163 0.105544ZM26.9018 2.46334C27.0103 2.54435 27.1653 2.69936 27.2463 2.80786C27.3922 3.00323 27.3938 3.06645 27.4126 9.5003L27.4315 15.9955H16.0011H4.57068V9.60688C4.57068 5.2551 4.59497 3.15417 4.6469 3.01716C4.74819 2.74972 4.98642 2.49806 5.2493 2.38076C5.42567 2.30212 7.34186 2.2879 16.0841 2.30062C26.6873 2.31605 26.7048 2.31626 26.9018 2.46334ZM5.71361 9.13792V14.8526H16H26.2864V9.13792V3.42326H16H5.71361V9.13792ZM24.0005 9.13792V12.5667H16H7.99948V9.13792V5.70912H16H24.0005V9.13792ZM11.4556 18.5075C11.5172 18.8155 11.7975 19.1656 12.0958 19.3071C12.3148 19.411 12.7577 19.4243 16 19.4243C19.2423 19.4243 19.6852 19.411 19.9042 19.3071C20.2025 19.1656 20.4828 18.8155 20.5444 18.5075L20.5896 18.2814H25.1587H29.7278L29.7036 19.0621C29.6775 19.9058 29.6155 20.0648 29.1876 20.3842L28.9904 20.5315H16H3.00965L2.81235 20.3842C2.38454 20.0648 2.32246 19.9058 2.29639 19.0621L2.27217 18.2814H6.84133H11.4104L11.4556 18.5075Z"/>
</symbol><symbol viewBox="0 0 15 15" id="in" xmlns="http://www.w3.org/2000/svg">
<path d="M8.64042 14.6788C7.66963 14.6788 6.75594 14.6788 5.78516 14.6788C5.78516 11.6236 5.78516 8.56852 5.78516 5.48484C6.67029 5.48484 7.58397 5.48484 8.49765 5.48484C8.49765 5.88458 8.49765 6.28431 8.49765 6.7126C8.52621 6.68405 8.55475 6.68405 8.55475 6.68405C9.15436 5.71326 10.0395 5.28497 11.153 5.25642C11.7812 5.22787 12.4094 5.31352 12.9804 5.59905C13.7228 5.94168 14.1511 6.56984 14.3795 7.34076C14.5793 7.96891 14.6365 8.59707 14.6365 9.22523C14.6365 10.9955 14.6365 12.7657 14.6365 14.536C14.6365 14.5646 14.6365 14.5931 14.6365 14.6217C13.6942 14.6217 12.752 14.6217 11.7812 14.6217C11.7812 14.5646 11.7812 14.5075 11.7812 14.4218C11.7812 12.9085 11.7812 11.4238 11.7812 9.91049C11.7812 9.56786 11.7526 9.22523 11.6955 8.8826C11.5242 7.94036 10.8961 7.62628 10.0395 7.74049C9.24002 7.82615 8.81172 8.31155 8.66896 9.16812C8.61186 9.4822 8.61186 9.79628 8.61186 10.1104C8.61186 11.538 8.61186 12.9942 8.61186 14.4218C8.64041 14.536 8.64042 14.5931 8.64042 14.6788Z"/>
<path d="M1.12891 5.51294C2.07114 5.51294 3.01338 5.51294 3.95561 5.51294C3.95561 8.56807 3.95561 11.6232 3.95561 14.6783C3.01338 14.6783 2.07114 14.6783 1.12891 14.6783C1.12891 11.6232 1.12891 8.56807 1.12891 5.51294Z"/>
<path d="M4.18589 2.5719C4.18589 3.48558 3.44352 4.22795 2.55839 4.2565C1.64471 4.2565 0.902344 3.51413 0.902344 2.60045C0.902344 1.68677 1.64471 0.9444 2.55839 0.9444C3.44352 0.915848 4.18589 1.65822 4.18589 2.5719Z"/>
</symbol><symbol viewBox="0 0 10 13" id="location" xmlns="http://www.w3.org/2000/svg">
<path d="M4.9987 12.9999C4.15666 12.2816 3.37616 11.4942 2.66537 10.6459C1.5987 9.3719 0.332032 7.47457 0.332032 5.66656C0.331569 4.74321 0.605037 3.84046 1.11783 3.07258C1.63062 2.3047 2.35968 1.7062 3.21274 1.35283C4.06581 0.999456 5.00453 0.907092 5.91011 1.08743C6.81569 1.26776 7.64742 1.71269 8.30003 2.3659C8.73454 2.79847 9.07893 3.31292 9.31329 3.87948C9.54765 4.44604 9.66732 5.05345 9.66537 5.66656C9.66537 7.47457 8.3987 9.3719 7.33203 10.6459C6.62123 11.4942 5.84074 12.2816 4.9987 12.9999ZM4.9987 3.66657C4.46827 3.66657 3.95956 3.87728 3.58448 4.25235C3.20941 4.62742 2.9987 5.13613 2.9987 5.66656C2.9987 6.197 3.20941 6.70571 3.58448 7.08078C3.95956 7.45585 4.46827 7.66656 4.9987 7.66656C5.52913 7.66656 6.03784 7.45585 6.41291 7.08078C6.78799 6.70571 6.9987 6.197 6.9987 5.66656C6.9987 5.13613 6.78799 4.62742 6.41291 4.25235C6.03784 3.87728 5.52913 3.66657 4.9987 3.66657Z"/>
</symbol><symbol viewBox="0 0 29 38" id="logo" xmlns="http://www.w3.org/2000/svg">
<path fill-rule="evenodd" clip-rule="evenodd" d="M22.6027 4.81498C23.8466 4.81498 24.8549 3.81534 24.8549 2.58239C24.8549 1.34946 23.8466 0.350098 22.6027 0.350098C21.3587 0.350098 20.3499 1.34946 20.3499 2.58239C20.3499 3.36842 20.7603 4.05997 21.3799 4.45766C15.0814 15.6874 9.83691 16.5949 0.660707 5.18365C0.578404 5.0821 0.429671 5.05163 0.317974 5.11904C0.243901 5.16344 0.200986 5.23912 0.195107 5.31876C0.189816 5.37877 0.205102 5.44111 0.243314 5.49372C9.92333 18.9691 10.306 25.8933 8.44951 37.6922C8.42953 37.8149 8.52535 37.9284 8.65057 37.9284C8.74698 37.9284 8.83046 37.8592 8.85103 37.7662C11.8915 24.0837 16.6181 20.5329 28.4256 19.1298C28.5291 19.1176 28.6096 19.0306 28.6096 18.9273C28.6096 18.8001 28.4868 18.7054 28.3604 18.7278C15.8068 20.9647 15.5246 16.6688 21.7979 4.66816C22.0477 4.76289 22.3187 4.81498 22.6027 4.81498Z"/>
</symbol><symbol viewBox="0 0 14 12" id="mail" xmlns="http://www.w3.org/2000/svg">
<path d="M12.332 0.666504H1.66536C0.932031 0.666504 0.338698 1.2665 0.338698 1.99984L0.332031 9.99984C0.332031 10.7332 0.932031 11.3332 1.66536 11.3332H12.332C13.0654 11.3332 13.6654 10.7332 13.6654 9.99984V1.99984C13.6654 1.2665 13.0654 0.666504 12.332 0.666504ZM12.332 3.33317L6.9987 6.6665L1.66536 3.33317V1.99984L6.9987 5.33317L12.332 1.99984V3.33317Z"/>
</symbol><symbol viewBox="0 0 32 36" id="management" xmlns="http://www.w3.org/2000/svg">
<path fill-rule="evenodd" clip-rule="evenodd" d="M15.5373 0.0319557C15.3889 0.0654208 15.1807 0.12865 15.0747 0.172447C14.9687 0.216322 11.759 2.00963 7.94217 4.15764C3.07077 6.89908 0.906101 8.15741 0.679171 8.37971C0.501436 8.55383 0.275894 8.87329 0.177966 9.0895L0 9.48267V17.6947V25.9068L0.20827 26.3309C0.322853 26.5641 0.548395 26.8835 0.709475 27.0406C0.894998 27.2214 3.57097 28.7712 8.00493 31.2657C13.3515 34.2736 15.1248 35.236 15.5037 35.3354C16.3831 35.566 16.2177 35.6451 23.9633 31.2886C28.1447 28.9368 31.0506 27.2562 31.2467 27.0762C31.426 26.9115 31.6689 26.581 31.7864 26.3418L32 25.9068V17.6947V9.48267L31.8182 9.08063C31.7182 8.85956 31.4754 8.52884 31.2784 8.34571C31.0328 8.11724 28.743 6.79043 23.9807 4.11693C20.1639 1.97416 16.9508 0.182703 16.8407 0.135975C16.558 0.0159171 15.8567 -0.0399864 15.5373 0.0319557ZM22.0771 5.86922C25.3718 7.71982 28.1083 9.27263 28.1581 9.31982C28.2259 9.38382 26.734 10.2655 22.2719 12.7983C18.9846 14.6644 16.2449 16.2025 16.1838 16.2165C16.0524 16.2465 3.80607 9.43757 3.83537 9.3509C3.86275 9.26993 15.8587 2.51492 15.9855 2.50906C16.0412 2.50644 18.7824 4.01854 22.0771 5.86922ZM9.1759 15.2249C12.3142 16.9735 14.8871 18.4094 14.8934 18.4157C14.9236 18.446 14.7719 32.134 14.7411 32.1649C14.7215 32.1844 11.9433 30.6467 8.56729 28.7478L2.42892 25.2951V18.3759V11.4567L2.9494 11.7511C3.2357 11.9131 6.03759 13.4762 9.1759 15.2249ZM29.5711 18.4128V25.2994L23.4345 28.7516C20.0593 30.6503 17.2856 32.1915 17.2705 32.1765C17.2236 32.1297 17.3696 18.4584 17.4176 18.4105C17.4889 18.3391 29.4485 11.5375 29.5133 11.5314C29.5451 11.5285 29.5711 14.625 29.5711 18.4128Z"/>
</symbol><symbol viewBox="0 0 11 14" id="phone" xmlns="http://www.w3.org/2000/svg">
<path d="M1.60004 0.400411L2.70689 0.0666964C3.07219 -0.0432657 3.46502 -0.0165856 3.8121 0.14176C4.15918 0.300105 4.4368 0.579302 4.59318 0.927268L5.36918 2.65298C5.50386 2.95237 5.5414 3.28641 5.47653 3.60823C5.41165 3.93004 5.24762 4.22345 5.00746 4.44727L3.82632 5.54784C3.66804 5.69813 3.78804 6.28384 4.36632 7.28613C4.94518 8.28898 5.39261 8.68555 5.59889 8.62384L7.14632 8.1507C7.45999 8.05476 7.79581 8.05937 8.10672 8.16389C8.41763 8.26842 8.68803 8.46761 8.88004 8.73355L9.98289 10.2621C10.2057 10.5708 10.3088 10.9498 10.2732 11.3288C10.2375 11.7078 10.0656 12.061 9.78918 12.3227L8.93661 13.1301C8.66138 13.3908 8.32194 13.5737 7.95292 13.6604C7.5839 13.747 7.1985 13.7342 6.83604 13.6233C5.04975 13.0764 3.39547 11.4536 1.85089 8.77755C0.302894 6.09755 -0.281677 3.83698 0.125751 1.99013C0.207925 1.61798 0.387859 1.27449 0.647006 0.995055C0.906152 0.715619 1.23513 0.510351 1.60004 0.400411Z"/>
</symbol><symbol viewBox="0 0 32 32" id="process" xmlns="http://www.w3.org/2000/svg">
<path d="M11.5003 11.3332H5.50033C5.1467 11.3332 4.80756 11.1927 4.55752 10.9426C4.30747 10.6926 4.16699 10.3535 4.16699 9.99984V3.99984C4.16699 3.64622 4.30747 3.30708 4.55752 3.05703C4.80756 2.80698 5.1467 2.6665 5.50033 2.6665C5.85395 2.6665 6.19309 2.80698 6.44313 3.05703C6.69318 3.30708 6.83366 3.64622 6.83366 3.99984V8.6665H11.5003C11.8539 8.6665 12.1931 8.80698 12.4431 9.05703C12.6932 9.30708 12.8337 9.64622 12.8337 9.99984C12.8337 10.3535 12.6932 10.6926 12.4431 10.9426C12.1931 11.1927 11.8539 11.3332 11.5003 11.3332Z"/>
<path d="M28 17.3333C27.6464 17.3333 27.3073 17.1928 27.0572 16.9428C26.8072 16.6927 26.6667 16.3536 26.6667 16C26.6677 13.6527 25.8939 11.3707 24.4655 9.50811C23.037 7.64553 21.0337 6.3065 18.7665 5.6988C16.4992 5.09111 14.0948 5.24874 11.9263 6.14723C9.75774 7.04573 7.94641 8.63484 6.77335 10.668C6.59618 10.974 6.30469 11.1972 5.963 11.2883C5.62131 11.3795 5.25741 11.3311 4.95135 11.154C4.64529 10.9768 4.42214 10.6853 4.331 10.3436C4.23986 10.0019 4.28818 9.63803 4.46535 9.33197C5.93235 6.79096 8.19693 4.8051 10.9078 3.68249C13.6186 2.55988 16.6241 2.36327 19.4581 3.12316C22.2921 3.88305 24.7961 5.55696 26.5816 7.88521C28.3672 10.2135 29.3344 13.0659 29.3333 16C29.3333 16.3536 29.1929 16.6927 28.9428 16.9428C28.6928 17.1928 28.3536 17.3333 28 17.3333ZM26.5 29.3333C26.1464 29.3333 25.8073 29.1928 25.5572 28.9428C25.3072 28.6927 25.1667 28.3536 25.1667 28V23.3333H20.5C20.1464 23.3333 19.8073 23.1928 19.5572 22.9428C19.3072 22.6927 19.1667 22.3536 19.1667 22C19.1667 21.6464 19.3072 21.3072 19.5572 21.0572C19.8073 20.8071 20.1464 20.6666 20.5 20.6666H26.5C26.8536 20.6666 27.1928 20.8071 27.4428 21.0572C27.6929 21.3072 27.8333 21.6464 27.8333 22V28C27.8333 28.3536 27.6929 28.6927 27.4428 28.9428C27.1928 29.1928 26.8536 29.3333 26.5 29.3333Z"/>
<path d="M16.0003 29.3332C12.4654 29.3289 9.07648 27.9228 6.57691 25.4233C4.07734 22.9237 2.67123 19.5348 2.66699 15.9998C2.66699 15.6462 2.80747 15.3071 3.05752 15.057C3.30756 14.807 3.6467 14.6665 4.00033 14.6665C4.35395 14.6665 4.69309 14.807 4.94313 15.057C5.19318 15.3071 5.33366 15.6462 5.33366 15.9998C5.33264 18.3471 6.1064 20.6291 7.53487 22.4917C8.96333 24.3543 10.9666 25.6933 13.2339 26.301C15.5011 26.9087 17.9056 26.7511 20.0741 25.8526C22.2426 24.9541 24.0539 23.365 25.227 21.3318C25.3147 21.1803 25.4314 21.0475 25.5705 20.9411C25.7095 20.8346 25.8682 20.7566 26.0373 20.7115C26.2065 20.6664 26.3829 20.655 26.5565 20.678C26.7301 20.7011 26.8974 20.7581 27.049 20.8458C27.2005 20.9336 27.3333 21.0503 27.4398 21.1893C27.5462 21.3284 27.6242 21.487 27.6693 21.6562C27.7145 21.8254 27.7258 22.0018 27.7028 22.1754C27.6797 22.349 27.6227 22.5163 27.535 22.6678C26.3623 24.6898 24.6803 26.3692 22.6565 27.5387C20.6327 28.7081 18.3377 29.3268 16.0003 29.3332Z"/>
</symbol><symbol viewBox="0 0 32 31" id="resources" xmlns="http://www.w3.org/2000/svg">
<path fill-rule="evenodd" clip-rule="evenodd" d="M10.0059 0.113909C9.73519 0.172691 9.21584 0.367734 8.85176 0.547466C7.23679 1.34464 6.15355 3.09964 6.15355 4.91912C6.15355 7.6788 8.53539 9.96207 11.2724 9.8262L11.893 9.79542L12.4065 10.9436L12.92 12.0918L12.4282 12.623C11.1868 13.9639 10.7569 15.9136 11.3431 17.5444C11.4557 17.8578 11.554 18.1502 11.5615 18.194C11.5691 18.2378 10.7015 19.0538 9.6337 20.0072L7.6922 21.7407L7.09468 21.4456C3.42642 19.6337 -0.737344 22.8743 0.111381 26.8806C0.408523 28.2833 1.41759 29.5872 2.69349 30.2169C4.17751 30.9495 5.66914 30.9511 7.14847 30.2218C9.28278 29.1697 10.3715 26.5142 9.57592 24.3009C9.46328 23.9875 9.36495 23.6944 9.35749 23.6498C9.34995 23.6051 10.2206 22.7884 11.2922 21.8349L13.2406 20.1012L13.834 20.3971C14.8415 20.8994 15.9344 21.0397 17.0311 20.8073C17.5814 20.6907 18.3782 20.3545 18.7766 20.0709C18.9276 19.9634 19.037 19.9323 19.0987 19.9793C19.8973 20.5885 22.3725 22.5082 22.4477 22.5768C22.5305 22.6523 22.5188 22.7572 22.3827 23.1614C22.2849 23.4516 22.2008 23.9384 22.1779 24.3465C21.9972 27.5712 24.9418 30.089 28.1172 29.4246C30.3254 28.9626 32 26.8886 32 24.6158C32 22.8017 30.9102 21.0311 29.3072 20.2407C27.7442 19.47 26.1009 19.5216 24.5864 20.389C24.2661 20.5724 24.0223 20.667 23.9709 20.6281C23.4292 20.2185 20.706 18.1067 20.63 18.0375C20.5472 17.9619 20.5586 17.8578 20.6937 17.4567C20.7843 17.1879 20.8777 16.6694 20.9013 16.3045L20.9443 15.6409L21.9408 15.312L22.9372 14.9832L23.0567 15.1638C23.1224 15.2632 23.4084 15.5719 23.6923 15.8499C25.5873 17.7059 28.6497 17.6723 30.541 15.7749C32.4822 13.8275 32.4822 10.7833 30.541 8.83583C28.6125 6.90102 25.5507 6.90302 23.6135 8.84029C22.7073 9.74649 22.1595 11.0204 22.1557 12.2306L22.1544 12.656L21.1475 12.9884L20.1405 13.3207L20.021 13.14C19.9553 13.0407 19.6651 12.7278 19.376 12.4448C18.4403 11.5287 17.1134 11.0262 15.8018 11.0914L15.1812 11.1222L14.6677 9.974L14.1542 8.82582L14.646 8.29455C16.4779 6.31596 16.4308 3.349 14.5375 1.44959C13.3451 0.253324 11.6569 -0.244246 10.0059 0.113909ZM11.8267 2.5813C12.414 2.77095 12.9053 3.18751 13.223 3.76502C13.4782 4.22889 13.498 4.31252 13.4969 4.91912C13.4959 5.51525 13.4726 5.61604 13.2343 6.05791C12.9432 6.59787 12.7018 6.831 12.1219 7.1323C11.7863 7.30672 11.6337 7.33634 11.075 7.33573C10.5409 7.33503 10.3506 7.30072 10.0363 7.1483C9.23808 6.76106 8.70296 5.97966 8.63125 5.09639C8.49176 3.37793 10.1797 2.04933 11.8267 2.5813ZM27.8302 9.96754C28.4175 10.1572 28.9089 10.5737 29.2265 11.1513C29.4817 11.6151 29.5015 11.6988 29.5005 12.3054C29.4994 12.9015 29.4761 13.0023 29.2379 13.4441C28.9463 13.9846 28.7043 14.2182 28.1255 14.5175C27.8002 14.6856 27.6267 14.7213 27.117 14.7248C25.9523 14.7327 25.1115 14.1365 24.7438 13.0418C24.1184 11.18 25.9464 9.35909 27.8302 9.96754ZM16.7509 13.6607C17.3716 13.8611 17.844 14.2712 18.1535 14.8782C18.3974 15.3566 18.4224 15.4651 18.4188 16.0294C18.4156 16.5263 18.3785 16.7226 18.2354 16.9987C17.9357 17.5774 17.6449 17.8844 17.1376 18.158C16.6935 18.3975 16.5987 18.419 15.9992 18.4167C15.2119 18.4138 14.7574 18.2279 14.2549 17.7035C13.8309 17.261 13.6033 16.765 13.5557 16.1801C13.4162 14.462 15.1061 13.1295 16.7509 13.6607ZM27.8302 22.2779C28.4175 22.4676 28.9089 22.8841 29.2265 23.4617C29.4817 23.9255 29.5015 24.0092 29.5005 24.6158C29.4994 25.2119 29.4761 25.3127 29.2379 25.7545C28.9467 26.2945 28.7053 26.5276 28.1255 26.8289C27.7898 27.0034 27.6372 27.033 27.0785 27.0324C26.5444 27.0317 26.3541 26.9974 26.0398 26.8449C24.9445 26.3136 24.3666 25.0185 24.7294 23.9082C25.1642 22.5775 26.5318 21.8585 27.8302 22.2779ZM5.95459 23.6199C6.42061 23.8413 6.86802 24.2902 7.13585 24.8055C7.30619 25.1332 7.33743 25.2934 7.33889 25.8468C7.34043 26.4457 7.3185 26.5416 7.07914 26.9856C6.788 27.5255 6.54656 27.7587 5.96674 28.06C5.63113 28.2344 5.47848 28.264 4.91982 28.2634C4.3857 28.2627 4.19535 28.2284 3.88113 28.076C1.88115 27.1058 2.0485 24.2723 4.15081 23.5084C4.63476 23.3325 5.4564 23.3833 5.95459 23.6199Z"/>
</symbol><symbol viewBox="0 0 28 28" id="support" xmlns="http://www.w3.org/2000/svg">
<path d="M14.0003 0.666504C6.64833 0.666504 0.666992 6.64784 0.666992 13.9998V19.5238C0.666992 20.8892 1.86299 21.9998 3.33366 21.9998H4.66699C5.02061 21.9998 5.35975 21.8594 5.6098 21.6093C5.85985 21.3593 6.00033 21.0201 6.00033 20.6665V13.8092C6.00033 13.4555 5.85985 13.1164 5.6098 12.8664C5.35975 12.6163 5.02061 12.4758 4.66699 12.4758H3.45633C4.19766 7.31584 8.63766 3.33317 14.0003 3.33317C19.363 3.33317 23.803 7.31584 24.5443 12.4758H23.3337C22.98 12.4758 22.6409 12.6163 22.3908 12.8664C22.1408 13.1164 22.0003 13.4555 22.0003 13.8092V21.9998C22.0003 23.4705 20.8043 24.6665 19.3337 24.6665H16.667V23.3332H11.3337V27.3332H19.3337C22.275 27.3332 24.667 24.9412 24.667 21.9998C26.1377 21.9998 27.3337 20.8892 27.3337 19.5238V13.9998C27.3337 6.64784 21.3523 0.666504 14.0003 0.666504Z"/>
</symbol><symbol viewBox="0 0 18 18" id="swipe-arrow" xmlns="http://www.w3.org/2000/svg">
<path d="M9 17L17 9L9 1" stroke-width="2" stroke-linecap="round" stroke-linejoin="round"/>
<path d="M1 9H17" stroke-width="2" stroke-linecap="round" stroke-linejoin="round"/>
</symbol><symbol viewBox="0 0 26 26" id="team" xmlns="http://www.w3.org/2000/svg">
<path d="M22.7563 18.8719C21.9741 18.0891 21.0601 17.4501 20.0563 16.9844C21.4719 15.8375 22.375 14.0875 22.375 12.125C22.375 8.6625 19.4875 5.82188 16.025 5.875C12.6156 5.92813 9.86877 8.70625 9.86877 12.125C9.86877 14.0875 10.775 15.8375 12.1875 16.9844C11.1835 17.4498 10.2695 18.0888 9.48752 18.8719C7.78127 20.5813 6.81252 22.8375 6.75002 25.2437C6.74918 25.2771 6.75503 25.3103 6.76722 25.3413C6.77941 25.3724 6.79769 25.4007 6.82099 25.4246C6.84429 25.4485 6.87213 25.4674 6.90288 25.4804C6.93363 25.4933 6.96665 25.5 7.00002 25.5H8.75002C8.88439 25.5 8.99689 25.3937 9.00002 25.2594C9.05939 23.4469 9.79377 21.75 11.0844 20.4625C11.7448 19.7986 12.5304 19.2722 13.3956 18.9139C14.2608 18.5555 15.1885 18.3724 16.125 18.375C18.0281 18.375 19.8188 19.1156 21.1656 20.4625C22.4531 21.75 23.1875 23.4469 23.25 25.2594C23.2531 25.3937 23.3656 25.5 23.5 25.5H25.25C25.2834 25.5 25.3164 25.4933 25.3472 25.4804C25.3779 25.4674 25.4057 25.4485 25.429 25.4246C25.4523 25.4007 25.4706 25.3724 25.4828 25.3413C25.495 25.3103 25.5009 25.2771 25.5 25.2437C25.4375 22.8375 24.4688 20.5813 22.7563 18.8719ZM16.125 16.125C15.0563 16.125 14.05 15.7094 13.2969 14.9531C12.9189 14.5781 12.6204 14.1309 12.419 13.638C12.2177 13.1451 12.1177 12.6167 12.125 12.0844C12.1344 11.0594 12.5438 10.0688 13.2594 9.33438C14.0094 8.56563 15.0125 8.1375 16.0844 8.125C17.1438 8.11563 18.1719 8.52813 18.9281 9.26875C19.7031 10.0281 20.1281 11.0438 20.1281 12.125C20.1281 13.1938 19.7125 14.1969 18.9563 14.9531C18.5852 15.3259 18.144 15.6214 17.658 15.8226C17.172 16.0237 16.651 16.1265 16.125 16.125ZM8.29689 12.95C8.26877 12.6781 8.25314 12.4031 8.25314 12.125C8.25314 11.6281 8.30002 11.1438 8.38752 10.6719C8.40939 10.5594 8.35002 10.4438 8.24689 10.3969C7.82189 10.2063 7.43127 9.94375 7.09377 9.6125C6.69608 9.2269 6.38314 8.76263 6.17491 8.24932C5.96668 7.73601 5.86774 7.18494 5.88439 6.63125C5.91252 5.62813 6.31564 4.675 7.01877 3.95625C7.79064 3.16563 8.82814 2.73438 9.93127 2.74688C10.9281 2.75625 11.8906 3.14063 12.6188 3.82188C12.8656 4.05313 13.0781 4.30938 13.2563 4.58438C13.3188 4.68125 13.4406 4.72188 13.5469 4.68438C14.0969 4.49375 14.6781 4.35938 15.275 4.29688C15.45 4.27813 15.55 4.09063 15.4719 3.93438C14.4563 1.925 12.3813 0.537501 9.98127 0.500001C6.51564 0.446876 3.62814 3.2875 3.62814 6.74688C3.62814 8.70938 4.53127 10.4594 5.94689 11.6063C4.95314 12.0656 4.03752 12.7 3.24377 13.4938C1.53127 15.2031 0.562517 17.4594 0.500017 19.8687C0.499183 19.9021 0.505033 19.9353 0.517223 19.9663C0.529413 19.9974 0.547695 20.0257 0.570993 20.0496C0.594292 20.0735 0.622134 20.0924 0.65288 20.1054C0.683626 20.1183 0.716654 20.125 0.750017 20.125H2.50314C2.63752 20.125 2.75002 20.0187 2.75314 19.8844C2.81252 18.0719 3.54689 16.375 4.83752 15.0875C5.75627 14.1688 6.88127 13.5312 8.10939 13.2219C8.23127 13.1906 8.31252 13.075 8.29689 12.95Z"/>
</symbol><symbol viewBox="0 0 15 13" id="tw" xmlns="http://www.w3.org/2000/svg">
<path d="M0.733337 10.888C2.25399 11.0087 3.65767 10.6466 4.88588 9.68111C3.59918 9.56042 2.72188 8.89664 2.25399 7.62941C2.6634 7.68976 3.07279 7.68976 3.54068 7.56907C2.83884 7.38803 2.31247 7.02597 1.90307 6.54322C1.49366 6.00012 1.25971 5.39668 1.25971 4.67255C1.66912 4.85358 2.07853 5.03461 2.54642 5.03461C1.90307 4.55186 1.55215 4.00876 1.37669 3.28463C1.20123 2.5605 1.31821 1.83637 1.66912 1.17259C3.18977 3.04326 5.11983 4.06911 7.51777 4.25014C7.51777 3.94842 7.45929 3.70704 7.51777 3.40532C7.57626 2.19844 8.45356 1.0519 9.5648 0.750179C10.6176 0.448459 11.5533 0.750179 12.3137 1.47431C12.3721 1.53465 12.4306 1.53465 12.4891 1.53465C13.074 1.41396 13.6004 1.17259 14.1852 0.870867C13.9513 1.53465 13.5419 2.07775 13.0155 2.43982C13.0155 2.43982 13.0155 2.43982 13.0155 2.50016C13.2494 2.43982 13.5419 2.37947 13.7758 2.31913C14.0098 2.25878 14.3022 2.13809 14.5362 2.07775C14.1852 2.5605 13.8343 3.04326 13.3664 3.40532C13.191 3.52601 13.1325 3.6467 13.1325 3.88807C13.1325 5.21565 12.84 6.42253 12.3137 7.62941C11.6118 9.07767 10.676 10.2846 9.33086 11.1294C8.39508 11.7328 7.34231 12.0949 6.23106 12.2759C5.47074 12.3966 4.71042 12.3966 3.95009 12.2759C2.78036 11.9138 1.72761 11.5518 0.733337 10.888Z"/>
</symbol><symbol viewBox="0 0 10 10" id="video" xmlns="http://www.w3.org/2000/svg">
<path d="M8.75 3.70096C9.75 4.27831 9.75 5.72169 8.75 6.29904L2.75 9.76314C1.75 10.3405 0.5 9.6188 0.5 8.4641L0.500001 1.5359C0.500001 0.381198 1.75 -0.34049 2.75 0.23686L8.75 3.70096Z"/>
</symbol></svg>