<svg aria-hidden="true" xmlns="http://www.w3.org/2000/svg" xmlns:xlink="http://www.w3.org/1999/xlink"><symbol viewBox="0 0 16 12" id="arrow" xmlns="http://www.w3.org/2000/svg">
<path d="M15.3652 6.56003L10.3852 11.56C10.2252 11.72 10.0251 11.8 9.82515 11.8C9.62515 11.8 9.42515 11.72 9.26515 11.56C8.94515 11.24 8.94515 10.74 9.26515 10.42L12.8852 6.78003H1.20515C0.765151 6.78003 0.405151 6.42003 0.405151 5.98003C0.405151 5.54003 0.765151 5.18003 1.20515 5.18003H12.8852L9.26515 1.54004C8.94515 1.22004 8.94515 0.720034 9.26515 0.400034C9.58515 0.0800342 10.0852 0.0800342 10.4052 0.400034L15.3852 5.40003C15.6852 5.74003 15.6852 6.26003 15.3652 6.56003Z"/>
</symbol><symbol viewBox="0 0 24 24" id="cart" xmlns="http://www.w3.org/2000/svg">
<path d="M1 2.5H2.65424C3.13263 2.5 3.37183 2.5 3.56628 2.58674C3.73771 2.66321 3.88415 2.78638 3.98886 2.94217C4.10763 3.11888 4.14862 3.35454 4.23058 3.82585L4.6087 6M4.6087 6L5.49173 11.0774C5.67091 12.1077 5.7605 12.6228 6.02583 12.9939C6.25945 13.3207 6.58606 13.5695 6.96311 13.708C7.39133 13.8654 7.91176 13.815 8.95264 13.7143L18.614 12.7793C19.6298 12.681 20.1378 12.6318 20.5221 12.4033C20.8653 12.1993 21.1395 11.8972 21.3095 11.536C21.5 11.1314 21.5 10.6211 21.5 9.6005V9.6005C21.5 8.51582 21.5 7.97348 21.2922 7.55394C21.1068 7.17971 20.809 6.8729 20.4404 6.67654C20.0272 6.4564 19.4851 6.44036 18.4009 6.40826L4.6087 6Z" stroke-width="1.8" stroke-linecap="round" stroke-linejoin="round"/>
<circle cx="8.5" cy="19" r="2" stroke-width="1.8"/>
<circle cx="18" cy="19" r="2" stroke-width="1.8"/>
</symbol><symbol viewBox="0 0 24 21" id="like" xmlns="http://www.w3.org/2000/svg">
<path d="M11.9996 19.0542C-8 8.00003 5.99999 -3.99997 11.9996 3.58809C18 -3.99997 32 8.00003 11.9996 19.0542Z" stroke-width="1.8"/>
</symbol><symbol viewBox="0 0 16 19" id="location" xmlns="http://www.w3.org/2000/svg">
<path fill-rule="evenodd" clip-rule="evenodd" d="M8.97404 18.5413C11.0898 17.0976 15.9167 13.3048 15.9167 8.74992C15.9167 4.37766 12.3723 0.833252 8 0.833252C3.62775 0.833252 0.083334 4.37766 0.083334 8.74992C0.083334 13.3048 4.91025 17.0976 7.02596 18.5413C7.61759 18.945 8.38241 18.945 8.97404 18.5413ZM8 11.2499C9.38071 11.2499 10.5 10.1306 10.5 8.74992C10.5 7.36921 9.38071 6.24992 8 6.24992C6.61929 6.24992 5.5 7.36921 5.5 8.74992C5.5 10.1306 6.61929 11.2499 8 11.2499Z"/>
</symbol><symbol viewBox="0 0 14 9" id="menu-arrow" xmlns="http://www.w3.org/2000/svg">
<path d="M12.8333 1.50012L7.00001 7.33346L1.16668 1.50012" stroke-width="1.8" stroke-linecap="round" stroke-linejoin="round"/>
</symbol><symbol viewBox="0 0 16 16" id="phone" xmlns="http://www.w3.org/2000/svg">
<path d="M11.4307 11.0668L10.9152 11.8401C10.8123 11.9944 10.6762 12.1261 10.4969 12.1735C9.90946 12.3287 8.3499 12.3988 5.9755 10.0244C3.60111 7.65004 3.67119 6.09046 3.82641 5.50302C3.8738 5.32368 4.00549 5.1876 4.15983 5.0847L4.93308 4.5692C5.50878 4.1854 5.66435 3.40757 5.28055 2.83187L3.82014 0.64126C3.48514 0.138762 2.83933 -0.0532187 2.28423 0.18468L1.62544 0.467021C1.12498 0.681503 0.716742 1.06643 0.47324 1.55343C0.269804 1.96031 0.112126 2.38877 0.0907621 2.84317C0.0234363 4.27515 0.337433 7.80312 4.26713 11.7328C8.19682 15.6625 11.7248 15.9765 13.1568 15.9092C13.6111 15.8878 14.0396 15.7301 14.4465 15.5267C14.9335 15.2832 15.3184 14.8749 15.5329 14.3745L15.8152 13.7157C16.0531 13.1606 15.8612 12.5148 15.3587 12.1798L13.168 10.7194C12.5923 10.3356 11.8145 10.4911 11.4307 11.0668Z"/>
</symbol><symbol viewBox="0 0 16 16" id="search" xmlns="http://www.w3.org/2000/svg">
<path d="M14.6666 14.6667L10.5801 10.5802M10.5801 10.5802C11.5604 9.59998 12.1666 8.24581 12.1666 6.75004C12.1666 3.7585 9.74152 1.33337 6.74998 1.33337C3.75844 1.33337 1.33331 3.7585 1.33331 6.75004C1.33331 9.74158 3.75844 12.1667 6.74998 12.1667C8.24575 12.1667 9.59992 11.5604 10.5801 10.5802Z" stroke-width="1.8" stroke-linecap="round" stroke-linejoin="round"/>
</symbol><symbol viewBox="0 0 24 24" id="share" xmlns="http://www.w3.org/2000/svg">
<path d="M18 16C17.212 16 16.5 16.31 15.966 16.807L8.91 12.7C8.96 12.47 9 12.24 9 12C9 11.76 8.96 11.53 8.91 11.3L15.96 7.19C16.5 7.69 17.21 8 18 8C19.66 8 21 6.66 21 5C21 3.34 19.66 2 18 2C16.34 2 15 3.34 15 5C15 5.24 15.04 5.47 15.09 5.7L8.04 9.81C7.5 9.31 6.79 9 6 9C4.34 9 3 10.34 3 12C3 13.66 4.34 15 6 15C6.79 15 7.5 14.69 8.04 14.19L15.088 18.308C15.0317 18.5344 15.0022 18.7667 15 19C15 19.5933 15.1759 20.1734 15.5056 20.6667C15.8352 21.1601 16.3038 21.5446 16.8519 21.7716C17.4001 21.9987 18.0033 22.0581 18.5853 21.9424C19.1672 21.8266 19.7018 21.5409 20.1213 21.1213C20.5409 20.7018 20.8266 20.1672 20.9424 19.5853C21.0581 19.0033 20.9987 18.4001 20.7716 17.8519C20.5446 17.3038 20.1601 16.8352 19.6667 16.5056C19.1734 16.1759 18.5933 16 18 16Z"/>
</symbol><symbol viewBox="0 0 18 18" id="telegram" xmlns="http://www.w3.org/2000/svg">
<path d="M17.7825 0.217449C17.6813 0.116704 17.5534 0.046952 17.4139 0.0163941C17.2744 -0.0141638 17.1291 -0.00425714 16.995 0.0449493L0.495001 6.04495C0.352702 6.09892 0.230191 6.19491 0.143739 6.32016C0.0572872 6.44542 0.0109863 6.59401 0.0109863 6.7462C0.0109863 6.89839 0.0572872 7.04698 0.143739 7.17223C0.230191 7.29749 0.352702 7.39348 0.495001 7.44745L6.9375 10.0199L11.6925 5.24995L12.75 6.30745L7.9725 11.0849L10.5525 17.5275C10.6081 17.667 10.7043 17.7866 10.8286 17.8709C10.953 17.9551 11.0998 18.0001 11.25 17.9999C11.4016 17.9968 11.5486 17.9479 11.6718 17.8595C11.795 17.7711 11.8885 17.6475 11.94 17.5049L17.94 1.00495C17.9911 0.872257 18.0034 0.727772 17.9755 0.588342C17.9477 0.448912 17.8807 0.320282 17.7825 0.217449Z"/>
</symbol></svg>