<svg aria-hidden="true" xmlns="http://www.w3.org/2000/svg" xmlns:xlink="http://www.w3.org/1999/xlink"><symbol viewBox="0 0 14 18" id="analytics" xmlns="http://www.w3.org/2000/svg">
<path fill-rule="evenodd" clip-rule="evenodd" d="M6.16671 2.33366C5.70647 2.33366 5.33337 2.70675 5.33337 3.16699C5.33337 3.62723 5.70647 4.00033 6.16671 4.00033H7.83337C8.29361 4.00033 8.66671 3.62723 8.66671 3.16699C8.66671 2.70675 8.29361 2.33366 7.83337 2.33366H6.16671ZM3.80896 2.33366C4.15216 1.36267 5.07819 0.666992 6.16671 0.666992H7.83337C8.92189 0.666992 9.84792 1.36267 10.1911 2.33366H11.1667C11.8297 2.33366 12.4656 2.59705 12.9345 3.06589C13.4033 3.53473 13.6667 4.17062 13.6667 4.83366V14.8337C13.6667 15.4967 13.4033 16.1326 12.9345 16.6014C12.4656 17.0703 11.8297 17.3337 11.1667 17.3337H2.83337C2.17033 17.3337 1.53445 17.0703 1.06561 16.6014C0.596766 16.1326 0.333374 15.4967 0.333374 14.8337V4.83366C0.333374 4.17062 0.596766 3.53473 1.06561 3.06589C1.53445 2.59705 2.17033 2.33366 2.83337 2.33366H3.80896ZM3.80896 4.00033H2.83337C2.61236 4.00033 2.4004 4.08812 2.24412 4.2444C2.08784 4.40068 2.00004 4.61265 2.00004 4.83366V14.8337C2.00004 15.0547 2.08784 15.2666 2.24412 15.4229C2.4004 15.5792 2.61236 15.667 2.83337 15.667H11.1667C11.3877 15.667 11.5997 15.5792 11.756 15.4229C11.9122 15.2666 12 15.0547 12 14.8337V4.83366C12 4.61265 11.9122 4.40068 11.756 4.2444C11.5997 4.08812 11.3877 4.00033 11.1667 4.00033H10.1911C9.84792 4.97132 8.92189 5.66699 7.83337 5.66699H6.16671C5.07819 5.66699 4.15216 4.97132 3.80896 4.00033ZM4.50004 8.16699C4.96028 8.16699 5.33337 8.54009 5.33337 9.00033V13.167C5.33337 13.6272 4.96028 14.0003 4.50004 14.0003C4.0398 14.0003 3.66671 13.6272 3.66671 13.167V9.00033C3.66671 8.54009 4.0398 8.16699 4.50004 8.16699ZM9.50004 9.83366C9.96028 9.83366 10.3334 10.2068 10.3334 10.667V13.167C10.3334 13.6272 9.96028 14.0003 9.50004 14.0003C9.0398 14.0003 8.66671 13.6272 8.66671 13.167V10.667C8.66671 10.2068 9.0398 9.83366 9.50004 9.83366ZM7.00004 11.5003C7.46028 11.5003 7.83337 11.8734 7.83337 12.3337V13.167C7.83337 13.6272 7.46028 14.0003 7.00004 14.0003C6.5398 14.0003 6.16671 13.6272 6.16671 13.167V12.3337C6.16671 11.8734 6.5398 11.5003 7.00004 11.5003Z"/>
</symbol><symbol viewBox="0 0 16 10" id="aroowlong" xmlns="http://www.w3.org/2000/svg">
<path fill-rule="evenodd" clip-rule="evenodd" d="M10.2929 0.292893C10.6834 -0.0976311 11.3166 -0.0976311 11.7071 0.292893L15.7071 4.29289C16.0976 4.68342 16.0976 5.31658 15.7071 5.70711L11.7071 9.70711C11.3166 10.0976 10.6834 10.0976 10.2929 9.70711C9.90237 9.31658 9.90237 8.68342 10.2929 8.29289L12.5858 6H1C0.447715 6 0 5.55228 0 5C0 4.44772 0.447715 4 1 4H12.5858L10.2929 1.70711C9.90237 1.31658 9.90237 0.683417 10.2929 0.292893Z"/>
</symbol><symbol viewBox="0 0 7 10" id="arrow" xmlns="http://www.w3.org/2000/svg">
<path fill-rule="evenodd" clip-rule="evenodd" d="M1.02851 0.529247C1.28886 0.268897 1.71097 0.268897 1.97132 0.529247L5.97132 4.52925C6.23167 4.7896 6.23167 5.21171 5.97132 5.47206L1.97132 9.47206C1.71097 9.73241 1.28886 9.73241 1.02851 9.47206C0.768165 9.21171 0.768165 8.7896 1.02851 8.52925L4.55711 5.00065L1.02851 1.47206C0.768165 1.21171 0.768165 0.789596 1.02851 0.529247Z"/>
</symbol><symbol viewBox="0 0 18 14" id="article" xmlns="http://www.w3.org/2000/svg">
<path fill-rule="evenodd" clip-rule="evenodd" d="M2.33329 2.50065V11.5225C3.26275 11.1753 4.25034 10.9954 5.24996 10.9954C6.24958 10.9954 7.23717 11.1753 8.16663 11.5225V2.50065C7.25975 2.05942 6.26257 1.82878 5.24996 1.82878C4.23735 1.82878 3.24017 2.05942 2.33329 2.50065ZM9.83329 2.50065V11.5225C10.7628 11.1753 11.7503 10.9954 12.75 10.9954C13.7496 10.9954 14.7372 11.1753 15.6666 11.5225V2.50065C14.7598 2.05942 13.7626 1.82878 12.75 1.82878C11.7373 1.82878 10.7402 2.05942 9.83329 2.50065ZM8.99996 1.05354C7.83878 0.468404 6.55462 0.162109 5.24996 0.162109C3.78715 0.162109 2.35012 0.547162 1.08329 1.27856C0.825458 1.42742 0.666626 1.70253 0.666626 2.00025V12.8336C0.666626 13.1313 0.825458 13.4064 1.08329 13.5553C1.34113 13.7041 1.65879 13.7041 1.91663 13.5553C2.93009 12.9702 4.07971 12.6621 5.24996 12.6621C6.4202 12.6621 7.56983 12.9702 8.58329 13.5553C8.84113 13.7041 9.15879 13.7041 9.41663 13.5553C10.4301 12.9702 11.5797 12.6621 12.75 12.6621C13.9202 12.6621 15.0698 12.9702 16.0833 13.5553C16.3411 13.7041 16.6588 13.7041 16.9166 13.5553C17.1745 13.4064 17.3333 13.1313 17.3333 12.8336V2.00025C17.3333 1.70253 17.1745 1.42742 16.9166 1.27856C15.6498 0.547162 14.2128 0.162109 12.75 0.162109C11.4453 0.162109 10.1611 0.468404 8.99996 1.05354Z"/>
</symbol><symbol viewBox="0 0 42 30" id="behance" xmlns="http://www.w3.org/2000/svg">
<path d="M11.25 15C12.9739 15 14.6272 14.3152 15.8462 13.0962C17.0652 11.8772 17.75 10.2239 17.75 8.5C17.75 6.77609 17.0652 5.12279 15.8462 3.90381C14.6272 2.68482 12.9739 2 11.25 2H1.5V28H11.25C12.9739 28 14.6272 27.3152 15.8462 26.0962C17.0652 24.8772 17.75 23.2239 17.75 21.5C17.75 19.7761 17.0652 18.1228 15.8462 16.9038C14.6272 15.6848 12.9739 15 11.25 15ZM11.25 15H1.5M25.3333 17.1667H40.5C40.5 15.1554 39.701 13.2266 38.2789 11.8044C36.8567 10.3823 34.9279 9.58333 32.9167 9.58333C30.9054 9.58333 28.9766 10.3823 27.5544 11.8044C26.1323 13.2266 25.3333 15.1554 25.3333 17.1667ZM25.3333 17.1667V21.5C25.5568 23.1221 26.2994 24.6283 27.4499 25.7934C28.6004 26.9585 30.0972 27.7199 31.7164 27.9637C33.3355 28.2076 34.9902 27.9208 36.4328 27.1462C37.8755 26.3717 39.0287 25.151 39.72 23.6667M29.6667 2H36.1667" stroke-width="3" stroke-linecap="round" stroke-linejoin="round"/>
</symbol><symbol viewBox="0 0 16 16" id="blog" xmlns="http://www.w3.org/2000/svg">
<path fill-rule="evenodd" clip-rule="evenodd" d="M0.988156 0.988156C1.30072 0.675595 1.72464 0.5 2.16667 0.5H10.5C10.942 0.5 11.366 0.675595 11.6785 0.988156C11.9911 1.30072 12.1667 1.72464 12.1667 2.16667H13.8333C14.2754 2.16667 14.6993 2.34226 15.0118 2.65482C15.3244 2.96738 15.5 3.39131 15.5 3.83333V13C15.5 13.663 15.2366 14.2989 14.7678 14.7678C14.2989 15.2366 13.663 15.5 13 15.5H3.83333C2.94928 15.5 2.10143 15.1488 1.47631 14.5237C0.851189 13.8986 0.5 13.0507 0.5 12.1667V2.16667C0.5 1.72464 0.675595 1.30072 0.988156 0.988156ZM10.643 13.8333H3.83333C3.39131 13.8333 2.96738 13.6577 2.65482 13.3452C2.34226 13.0326 2.16667 12.6087 2.16667 12.1667L2.16667 2.16667L10.5 2.16667V13C10.5 13.2866 10.5492 13.5682 10.643 13.8333ZM12.1667 3.83333V13C12.1667 13.221 12.2545 13.433 12.4107 13.5893C12.567 13.7455 12.779 13.8333 13 13.8333C13.221 13.8333 13.433 13.7455 13.5893 13.5893C13.7455 13.433 13.8333 13.221 13.8333 13V3.83333H12.1667ZM3.83333 4.66667C3.83333 4.20643 4.20643 3.83333 4.66667 3.83333H8C8.46024 3.83333 8.83333 4.20643 8.83333 4.66667C8.83333 5.1269 8.46024 5.5 8 5.5H4.66667C4.20643 5.5 3.83333 5.1269 3.83333 4.66667ZM3.83333 8C3.83333 7.53976 4.20643 7.16667 4.66667 7.16667H8C8.46024 7.16667 8.83333 7.53976 8.83333 8C8.83333 8.46024 8.46024 8.83333 8 8.83333H4.66667C4.20643 8.83333 3.83333 8.46024 3.83333 8ZM3.83333 11.3333C3.83333 10.8731 4.20643 10.5 4.66667 10.5H8C8.46024 10.5 8.83333 10.8731 8.83333 11.3333C8.83333 11.7936 8.46024 12.1667 8 12.1667H4.66667C4.20643 12.1667 3.83333 11.7936 3.83333 11.3333Z"/>
</symbol><symbol viewBox="0 0 43 42" id="dribbble" xmlns="http://www.w3.org/2000/svg">
<path d="M15 2.80021C25.8333 15.8002 30.1667 25.5502 31.25 37.9002M9.36667 36.1669C16.95 28.5835 22.3667 22.0835 40.7833 22.3002M2.21666 18.2917C13.05 18.2917 23.4803 17.4683 35.397 7.45833M41 21C41 31.7696 32.2696 40.5 21.5 40.5C10.7304 40.5 2 31.7696 2 21C2 10.2304 10.7304 1.5 21.5 1.5C32.2696 1.5 41 10.2304 41 21Z" stroke-width="3" stroke-linecap="round" stroke-linejoin="round"/>
</symbol><symbol viewBox="0 0 13 20" id="fb" xmlns="http://www.w3.org/2000/svg">
<path fill-rule="evenodd" clip-rule="evenodd" d="M4.75736 1.75736C5.88258 0.632141 7.4087 0 9 0H12C12.5523 0 13 0.447715 13 1V5C13 5.55228 12.5523 6 12 6H9V7H12C12.3079 7 12.5987 7.14187 12.7882 7.38459C12.9777 7.6273 13.0448 7.94379 12.9701 8.24254L11.9701 12.2425C11.8589 12.6877 11.4589 13 11 13H9V19C9 19.5523 8.55228 20 8 20H4C3.44772 20 3 19.5523 3 19V13H1C0.447715 13 0 12.5523 0 12V8C0 7.44772 0.447715 7 1 7H3V6C3 4.4087 3.63214 2.88258 4.75736 1.75736ZM9 2C7.93913 2 6.92172 2.42143 6.17157 3.17157C5.42143 3.92172 5 4.93913 5 6V8C5 8.55228 4.55228 9 4 9H2V11H4C4.55228 11 5 11.4477 5 12V18H7V12C7 11.4477 7.44772 11 8 11H10.2192L10.7192 9H8C7.44772 9 7 8.55228 7 8V6C7 5.46957 7.21071 4.96086 7.58579 4.58579C7.96086 4.21071 8.46957 4 9 4H11V2H9Z"/>
</symbol><symbol viewBox="0 0 29 42" id="figma" xmlns="http://www.w3.org/2000/svg">
<path d="M21 14.5C17.4101 14.5 14.5 17.4101 14.5 21C14.5 24.5899 17.4101 27.5 21 27.5C24.5899 27.5 27.5 24.5899 27.5 21C27.5 17.4101 24.5899 14.5 21 14.5ZM21 14.5C24.5899 14.5 27.5 11.5899 27.5 8C27.5 4.41015 24.5899 1.5 21 1.5H8C4.41015 1.5 1.5 4.41015 1.5 8C1.5 11.5899 4.41015 14.5 8 14.5M21 14.5H8M8 14.5C6.27609 14.5 4.6228 15.1848 3.40381 16.4038C2.18482 17.6228 1.5 19.2761 1.5 21C1.5 22.7239 2.18482 24.3772 3.40381 25.5962C4.6228 26.8152 6.2761 27.5 8 27.5M8 27.5H14.5M8 27.5C6.71442 27.5 5.45772 27.8812 4.3888 28.5954C3.31988 29.3097 2.48676 30.3248 1.99479 31.5126C1.50282 32.7003 1.37409 34.0072 1.6249 35.2681C1.8757 36.529 2.49477 37.6872 3.40381 38.5962C4.31285 39.5052 5.47104 40.1243 6.73192 40.3751C7.99279 40.6259 9.29973 40.4972 10.4874 40.0052C11.6752 39.5132 12.6903 38.6801 13.4046 37.6112C14.1188 36.5423 14.5 35.2856 14.5 34V1.5" stroke-width="3" stroke-linecap="round" stroke-linejoin="round"/>
</symbol><symbol viewBox="0 0 40 42" id="github" xmlns="http://www.w3.org/2000/svg">
<path d="M14.5 36.1663C5.18333 39.1996 5.18333 30.7496 1.5 29.6663M27.5 40.4996V32.9163C27.5 30.7496 27.7167 29.883 26.4167 28.583C32.4833 27.933 38.3333 25.5497 38.3333 15.583C38.3307 12.9937 37.3205 10.5072 35.5167 8.64965C36.3627 6.40058 36.2848 3.90818 35.3 1.71632C35.3 1.71632 32.9167 1.06632 27.7167 4.53298C23.3123 3.38592 18.6876 3.38592 14.2833 4.53298C9.08333 1.06632 6.7 1.71632 6.7 1.71632C5.71521 3.90818 5.63732 6.40058 6.48333 8.64965C4.67948 10.5072 3.6693 12.9937 3.66667 15.583C3.66667 25.5497 9.51667 27.933 15.5833 28.583C14.2833 29.883 14.2833 31.183 14.5 32.9163V40.4996" stroke-width="3" stroke-linecap="round" stroke-linejoin="round"/>
</symbol><symbol viewBox="0 0 20 20" id="globus" xmlns="http://www.w3.org/2000/svg">
<path fill-rule="evenodd" clip-rule="evenodd" d="M9.62061 0.00719839C9.7465 0.00250303 9.87297 0.000134521 10 0.000134521C10.127 0.000134521 10.2535 0.00250279 10.3794 0.00719767C10.4959 -0.0068875 10.6135 -0.000155156 10.7265 0.0261202C15.9102 0.398281 20 4.72159 20 10.0001C20 15.2787 15.9102 19.602 10.7265 19.9741C10.6135 20.0004 10.4959 20.0072 10.3794 19.9931C10.2535 19.9978 10.127 20.0001 10 20.0001C9.87297 20.0001 9.7465 19.9978 9.62062 19.9931C9.50403 20.0072 9.38648 20.0004 9.27348 19.9741C4.08979 19.602 0 15.2787 0 10.0001C0 4.72161 4.08979 0.398301 9.27348 0.0261227C9.38649 -0.000155156 9.50403 -0.0068881 9.62061 0.00719839ZM12.3753 17.6416C14.3116 17.0404 15.9329 15.7234 16.9297 14.0001H13.6277C13.3421 15.2535 12.9225 16.4745 12.3753 17.6416ZM11.5697 14.0001C11.2202 15.3537 10.6937 16.6603 9.99999 17.8851C9.30632 16.6603 8.77974 15.3537 8.43025 14.0001H11.5697ZM13.9663 12.0001H17.748C17.9125 11.3609 18 10.6907 18 10.0001C18 9.30954 17.9125 8.63937 17.748 8.00013H13.9663C14.0404 8.66215 14.0778 9.3298 14.0778 10.0001C14.0778 10.6705 14.0404 11.3381 13.9663 12.0001ZM11.9523 8.00013C12.0356 8.66128 12.0778 9.3292 12.0778 10.0001C12.0778 10.6711 12.0356 11.339 11.9523 12.0001H8.04766C7.96437 11.339 7.92218 10.6711 7.92218 10.0001C7.92218 9.3292 7.96437 8.66128 8.04766 8.00013H11.9523ZM13.6277 6.00013H16.9297C15.9329 4.27682 14.3116 2.95988 12.3753 2.35866C12.9225 3.52579 13.3421 4.74677 13.6277 6.00013ZM11.5697 6.00013H8.43025C8.77974 4.64656 9.30632 3.33993 9.99999 2.11517C10.6937 3.33993 11.2202 4.64656 11.5697 6.00013ZM7.62469 2.35867C5.68839 2.9599 4.06714 4.27683 3.07026 6.00013H6.37225C6.65792 4.74677 7.07745 3.52579 7.62469 2.35867ZM6.03363 8.00013H2.25203C2.08751 8.63937 2 9.30954 2 10.0001C2 10.6907 2.08751 11.3609 2.25204 12.0001H6.03363C5.95961 11.3381 5.92218 10.6705 5.92218 10.0001C5.92218 9.3298 5.95961 8.66215 6.03363 8.00013ZM6.37225 14.0001C6.65792 15.2535 7.07746 16.4745 7.62469 17.6416C5.68839 17.0404 4.06714 15.7234 3.07026 14.0001H6.37225Z"/>
</symbol><symbol viewBox="0 0 18 18" id="in" xmlns="http://www.w3.org/2000/svg">
<path fill-rule="evenodd" clip-rule="evenodd" d="M3 2C2.44772 2 2 2.44772 2 3V15C2 15.5523 2.44772 16 3 16H15C15.5523 16 16 15.5523 16 15V3C16 2.44772 15.5523 2 15 2H3ZM0 3C0 1.34315 1.34315 0 3 0H15C16.6569 0 18 1.34315 18 3V15C18 16.6569 16.6569 18 15 18H3C1.34315 18 0 16.6569 0 15V3ZM5 4C5.55228 4 6 4.44772 6 5V5.01C6 5.56228 5.55228 6.01 5 6.01C4.44772 6.01 4 5.56228 4 5.01V5C4 4.44772 4.44772 4 5 4ZM5 7C5.55228 7 6 7.44772 6 8V13C6 13.5523 5.55228 14 5 14C4.44772 14 4 13.5523 4 13V8C4 7.44772 4.44772 7 5 7ZM8 13C8 13.5523 8.44772 14 9 14C9.55229 14 10 13.5523 10 13V10C10 9.73478 10.1054 9.48043 10.2929 9.29289C10.4804 9.10536 10.7348 9 11 9C11.2652 9 11.5196 9.10536 11.7071 9.29289C11.8946 9.48043 12 9.73478 12 10V13C12 13.5523 12.4477 14 13 14C13.5523 14 14 13.5523 14 13V10C14 9.20435 13.6839 8.44129 13.1213 7.87868C12.5587 7.31607 11.7957 7 11 7C10.5483 7 10.1071 7.10187 9.70711 7.29289C9.52614 7.11193 9.27614 7 9 7C8.44772 7 8 7.44772 8 8V13Z"/>
</symbol><symbol viewBox="0 0 18 18" id="inst" xmlns="http://www.w3.org/2000/svg">
<path fill-rule="evenodd" clip-rule="evenodd" d="M5 2C3.34315 2 2 3.34315 2 5V13C2 14.6569 3.34315 16 5 16H13C14.6569 16 16 14.6569 16 13V5C16 3.34315 14.6569 2 13 2H5ZM0 5C0 2.23858 2.23858 0 5 0H13C15.7614 0 18 2.23858 18 5V13C18 15.7614 15.7614 18 13 18H5C2.23858 18 0 15.7614 0 13V5ZM9 7C7.89543 7 7 7.89543 7 9C7 10.1046 7.89543 11 9 11C10.1046 11 11 10.1046 11 9C11 7.89543 10.1046 7 9 7ZM5 9C5 6.79086 6.79086 5 9 5C11.2091 5 13 6.79086 13 9C13 11.2091 11.2091 13 9 13C6.79086 13 5 11.2091 5 9Z"/>
</symbol><symbol viewBox="0 0 12 20" id="logo" xmlns="http://www.w3.org/2000/svg">
<path fill-rule="evenodd" clip-rule="evenodd" d="M10.7479 1.29789C11.4731 2.12758 11.3921 3.39129 10.5669 4.12045L6.17568 8.00055L10.2711 9.10389C10.9797 9.29479 11.5263 9.86233 11.6932 10.5806C11.8602 11.2988 11.6204 12.0511 11.0694 12.538L3.88631 18.8851C3.0611 19.6142 1.80423 19.5327 1.07902 18.703C0.3538 17.8733 0.434859 16.6096 1.26007 15.8805L5.65126 12.0004L1.55583 10.897C0.847231 10.7061 0.300649 10.1386 0.133692 9.42036C-0.0332649 8.70212 0.206507 7.9498 0.757551 7.46289L7.94063 1.11585C8.76584 0.386689 10.0227 0.468189 10.7479 1.29789Z"/>
</symbol><symbol viewBox="0 0 43 42" id="pinterest" xmlns="http://www.w3.org/2000/svg">
<path d="M12.8333 38.3333L21.5 18.8333M18.6833 25.3333C19.6302 28.0698 21.7817 29.6667 24.2083 29.6667C28.6955 29.6667 32.3333 26.2997 32.3333 21C32.3352 19.418 31.9905 17.8547 31.3236 16.4201C30.6566 14.9855 29.6835 13.7144 28.4727 12.6962C27.2619 11.6779 25.8428 10.9372 24.3151 10.5261C22.7874 10.115 21.1882 10.0435 19.6299 10.3166C18.0716 10.5897 16.592 11.2008 15.2952 12.1069C13.9983 13.0131 12.9157 14.1922 12.1233 15.5615C11.331 16.9309 10.8481 18.4571 10.7088 20.033C10.5694 21.6089 10.7769 23.1962 11.3167 24.6833M41 21C41 31.7696 32.2696 40.5 21.5 40.5C10.7304 40.5 2 31.7696 2 21C2 10.2304 10.7304 1.5 21.5 1.5C32.2696 1.5 41 10.2304 41 21Z" stroke-width="3" stroke-linecap="round" stroke-linejoin="round"/>
</symbol><symbol viewBox="0 0 15 18" id="play" xmlns="http://www.w3.org/2000/svg">
<path fill-rule="evenodd" clip-rule="evenodd" d="M0.512197 0.127046C0.828453 -0.0496759 1.21556 -0.0415291 1.5241 0.148342L14.5241 8.14834C14.8198 8.33034 15 8.65274 15 9C15 9.34726 14.8198 9.66966 14.5241 9.85166L1.5241 17.8517C1.21556 18.0415 0.828453 18.0497 0.512197 17.873C0.195942 17.6962 0 17.3623 0 17V1C0 0.637718 0.195942 0.303768 0.512197 0.127046ZM2 2.78956V15.2104L12.092 9L2 2.78956Z"/>
</symbol><symbol viewBox="0 0 43 38" id="sketch" xmlns="http://www.w3.org/2000/svg">
<path d="M2.06765 16.5685L19.401 35.6113C20.2677 36.5646 21.7648 36.5646 22.6315 35.6113L39.9648 16.5663C40.643 15.821 40.721 14.7051 40.1533 13.8731L32.4898 2.61947C32.2915 2.32916 32.0256 2.09145 31.7149 1.92687C31.4043 1.76229 31.0582 1.67578 30.7067 1.6748H11.367C11.0154 1.67578 10.6694 1.76229 10.3587 1.92687C10.048 2.09145 9.7821 2.32916 9.58382 2.61947L1.91382 13.8688C1.34398 14.703 1.42198 15.821 2.10232 16.5685H2.06765Z" stroke-width="3" stroke-linecap="round" stroke-linejoin="round"/>
</symbol><symbol viewBox="0 0 22 19" id="tw" xmlns="http://www.w3.org/2000/svg">
<path fill-rule="evenodd" clip-rule="evenodd" d="M18.2814 1.87973C18.367 1.85607 18.451 1.83306 18.5336 1.81043C19.2554 1.61271 19.8715 1.44394 20.5244 1.12874C20.7014 1.03289 20.9084 0.989711 21.1214 1.01575C21.6231 1.07707 22.0001 1.503 22.0001 2.00836V2.00936C22.0001 2.10124 21.9875 2.19119 21.9636 2.27716C21.771 3.02827 21.2635 4.06034 20.8659 4.84082C20.7632 5.04239 20.6687 5.22514 20.5821 5.3927C20.4832 5.58418 20.3945 5.75581 20.3154 5.913C20.2571 6.02899 20.213 6.11972 20.182 6.18717C20.1742 7.48901 19.9951 8.78442 19.6492 10.04L19.6478 10.0448C18.4203 14.4145 15.2065 17.3456 11.3131 18.4767L11.3129 18.4767C7.8769 19.4741 3.99812 18.7723 0.521531 16.8774C0.113735 16.6551 -0.0873581 16.1814 0.036058 15.7336C0.159474 15.2859 0.574912 14.9821 1.039 15.0001C2.44502 15.0548 3.6941 14.7018 4.94842 14.0579C3.65017 13.2557 2.71768 12.3207 2.07835 11.3106C1.19621 9.91684 0.919044 8.45424 0.931903 7.15186C0.944686 5.85718 1.24338 4.7044 1.53097 3.88524C1.67574 3.47288 1.82037 3.13753 1.93066 2.90187C1.98588 2.78385 2.03275 2.69029 2.06707 2.62399C2.08423 2.59083 2.09829 2.56444 2.1087 2.54517L2.12155 2.52164L2.12581 2.51395L2.12739 2.51113L2.12803 2.50999C2.12831 2.50949 2.12858 2.50901 3.0001 2.99936L2.12858 2.50901C2.29619 2.21109 2.60438 2.01944 2.9457 2.00084C3.28703 1.98224 3.61421 2.13929 3.8132 2.41724C5.29896 4.49251 7.49453 5.7626 9.9998 5.97193C9.98829 3.86667 11.3127 2.05856 13.2694 1.32586C14.8937 0.717663 16.8162 0.647187 18.2814 1.87973ZM3.3005 4.90562C3.10579 5.54169 2.94013 6.32837 2.93181 7.17161C2.92191 8.17336 3.13337 9.23781 3.7683 10.241C4.40179 11.2419 5.50381 12.2561 7.39974 13.0827C7.73518 13.2289 7.96396 13.5467 7.99621 13.9112C8.02847 14.2757 7.85905 14.6287 7.5545 14.8316C6.60281 15.4656 5.62154 16.0197 4.56931 16.4099C6.72357 17.0392 8.85922 17.1064 10.7551 16.5561M3.3005 4.90562C5.314 6.94734 8.03725 8.07547 11.0257 7.99903C11.5678 7.98516 12.0001 7.54168 12.0001 6.99936V5.99936H12.0002L12 5.98564C11.9831 4.75447 12.7462 3.65739 13.9708 3.19886C15.3614 2.67813 16.5144 2.83054 17.2517 3.66258C17.509 3.95295 17.911 4.06828 18.2831 3.95847C18.4914 3.89702 18.7106 3.83719 18.938 3.77515C19.0242 3.75162 19.1116 3.72777 19.2 3.7034C19.1617 3.77965 19.1229 3.85623 19.0838 3.9329C18.9951 4.10708 18.9026 4.28625 18.8145 4.45684C18.7078 4.66338 18.6077 4.85733 18.5286 5.01459C18.454 5.16299 18.384 5.30627 18.3312 5.42683C18.3052 5.48615 18.2762 5.55591 18.2521 5.62691C18.2516 5.62813 18.2512 5.62954 18.2506 5.63111C18.2363 5.67282 18.1811 5.83393 18.1821 6.0269C18.1886 7.20239 18.0337 8.37321 17.7216 9.50654C16.6906 13.1733 14.0211 15.6072 10.7553 16.556"/>
</symbol><symbol viewBox="0 0 18 12" id="video" xmlns="http://www.w3.org/2000/svg">
<path fill-rule="evenodd" clip-rule="evenodd" d="M3.16663 1.83268C2.70639 1.83268 2.33329 2.20578 2.33329 2.66602V9.33268C2.33329 9.79292 2.70639 10.166 3.16663 10.166H9.83329C10.2935 10.166 10.6666 9.79292 10.6666 9.33268V2.66602C10.6666 2.20578 10.2935 1.83268 9.83329 1.83268H3.16663ZM12.3333 2.98455V2.66602C12.3333 1.2853 11.214 0.166016 9.83329 0.166016H3.16663C1.78591 0.166016 0.666626 1.2853 0.666626 2.66602V9.33268C0.666626 10.7134 1.78591 11.8327 3.16663 11.8327H9.83329C11.214 11.8327 12.3333 10.7134 12.3333 9.33268V9.01434L14.9215 10.3082C15.1755 10.4351 15.4579 10.4951 15.7416 10.4823C16.0253 10.4695 16.301 10.3845 16.5426 10.2352C16.7842 10.086 16.9837 9.87743 17.1221 9.62944C17.2604 9.38144 17.3331 9.10221 17.3333 8.81823V3.18111C17.3331 2.89713 17.2604 2.61745 17.1221 2.36946C16.9837 2.12146 16.7842 1.91294 16.5426 1.76368C16.301 1.61442 16.0253 1.52936 15.7416 1.51658C15.4579 1.5038 15.1757 1.56373 14.9216 1.69067L12.3333 2.98455ZM12.3333 4.84786V7.15104L15.6666 8.81734V3.18156L12.3333 4.84786Z"/>
</symbol></svg>