<svg width="200" height="200" viewBox="0 0 200 200" fill="none" xmlns="http://www.w3.org/2000/svg">
<path d="M84.2904 123.694C80.2517 123.694 76.4557 121.179 73.873 116.782C71.611 112.941 70.363 107.903 70.363 102.613C70.363 97.3145 71.611 92.285 73.873 88.4435C76.4557 84.0557 80.2604 81.5322 84.2904 81.5322C88.329 81.5322 92.125 84.047 94.7077 88.4435C96.9697 92.285 98.2177 97.3232 98.2177 102.613C98.2177 107.903 96.9697 112.941 94.7077 116.782C92.125 121.17 88.329 123.694 84.2904 123.694Z" fill="#1F2025" stroke="white" stroke-width="2" stroke-miterlimit="10"/>
<path d="M84.2904 120C89.948 120 94.5344 112.215 94.5344 102.613C94.5344 93.0108 89.948 85.2266 84.2904 85.2266C78.6328 85.2266 74.0464 93.0108 74.0464 102.613C74.0464 112.215 78.6328 120 84.2904 120Z" stroke="white" stroke-width="2" stroke-miterlimit="10"/>
<path d="M85.1311 81.5674L145.33 86.6576C145.33 86.6576 151.145 90.7419 151.145 102.613C151.145 114.485 145.33 118.56 145.33 118.56L85.1311 123.659" stroke="white" stroke-width="2" stroke-miterlimit="10"/>
<path d="M146.95 88.2959L173.696 90.5592C173.696 90.5592 178.09 93.6376 178.09 102.613C178.09 111.588 173.696 114.658 173.696 114.658L146.95 116.921" stroke="white" stroke-width="2" stroke-miterlimit="10"/>
<path d="M176.833 95.1816L180.499 95.4938C180.499 95.4938 183.09 97.3149 183.09 102.613C183.09 107.912 180.499 109.733 180.499 109.733L176.833 110.045" stroke="white" stroke-width="2" stroke-miterlimit="10"/>
<path d="M53.9483 123.694C49.9097 123.694 46.1137 121.179 43.531 116.782C41.269 112.941 40.021 107.903 40.021 102.613C40.021 97.3145 41.269 92.285 43.531 88.4435C46.1137 84.0557 49.9183 81.5322 53.9483 81.5322C57.987 81.5322 61.783 84.047 64.3657 88.4435C66.6277 92.285 67.8757 97.3232 67.8757 102.613C67.8757 107.903 66.6277 112.941 64.3657 116.782C61.7743 121.17 57.9783 123.694 53.9483 123.694Z" fill="#1F2025" stroke="white" stroke-width="2" stroke-miterlimit="10"/>
<path d="M53.9483 120C59.6059 120 64.1923 112.215 64.1923 102.613C64.1923 93.0108 59.6059 85.2266 53.9483 85.2266C48.2907 85.2266 43.7043 93.0108 43.7043 102.613C43.7043 112.215 48.2907 120 53.9483 120Z" stroke="white" stroke-width="2" stroke-miterlimit="10"/>
<path d="M78.2236 121.673L54.7803 123.659" stroke="white" stroke-width="2" stroke-miterlimit="10"/>
<path d="M54.7803 81.5674L78.0936 83.5358" stroke="white" stroke-width="2" stroke-miterlimit="10"/>
<path d="M100.747 144.046L101.908 147.064L104.933 148.226L101.908 149.388L100.747 152.414L99.5856 149.396L96.5696 148.226L99.5856 147.064L100.747 144.046Z" fill="#F12052"/>
<path d="M30.6295 60.6201L31.7908 63.6465L34.8155 64.8085L31.7908 65.9705L30.6295 68.9969L29.4681 65.9705L26.4521 64.8085L29.4681 63.6465L30.6295 60.6201Z" fill="#F12052"/>
<path d="M111.556 56.5752L112.717 59.5929L115.733 60.7636L112.717 61.9256L111.556 64.9433L110.386 61.9256L107.37 60.7636L110.394 59.5929L111.556 56.5752Z" fill="#F12052"/>
<path d="M178.09 131.812L179.251 134.838L182.267 136L179.251 137.162L178.09 140.188L176.928 137.162L173.904 136L176.928 134.838L178.09 131.812Z" fill="#F12052"/>
<path d="M152.963 151.113H152.253V182.782H152.963V151.113Z" fill="white"/>
<path d="M168.438 167.302V166.591H136.787V167.302H168.438Z" fill="white"/>
<path d="M141.667 155.502L141.164 156.005L163.544 178.398L164.047 177.895L141.667 155.502Z" fill="white"/>
<path d="M164.051 155.999L163.549 155.496L141.169 177.889L141.671 178.392L164.051 155.999Z" fill="white"/>
<path d="M152.608 169.775C154.168 169.775 155.433 168.509 155.433 166.948C155.433 165.387 154.168 164.121 152.608 164.121C151.048 164.121 149.783 165.387 149.783 166.948C149.783 168.509 151.048 169.775 152.608 169.775Z" fill="white"/>
<path d="M115.75 22.1846V36.5447C115.75 37.9235 116.868 39.0508 118.255 39.0508H146.907C148.285 39.0508 149.412 40.1695 149.412 41.5569V57.7382C149.412 59.1169 150.53 60.2442 151.916 60.2442H179.979" stroke="white" stroke-width="2" stroke-miterlimit="10"/>
<path d="M115.75 23.3721C116.406 23.3721 116.938 22.8402 116.938 22.1841C116.938 21.528 116.406 20.9961 115.75 20.9961C115.095 20.9961 114.563 21.528 114.563 22.1841C114.563 22.8402 115.095 23.3721 115.75 23.3721Z" fill="white"/>
<path d="M179.962 61.4317C180.617 61.4317 181.149 60.8998 181.149 60.2437C181.149 59.5876 180.617 59.0557 179.962 59.0557C179.306 59.0557 178.774 59.5876 178.774 60.2437C178.774 60.8998 179.306 61.4317 179.962 61.4317Z" fill="white"/>
<path d="M8.76343 142.871H19.9694C21.4688 142.871 22.6821 144.085 22.6821 145.585V154.873C22.6821 156.373 23.8954 157.587 25.3948 157.587H53.6221C55.1214 157.587 56.3348 158.801 56.3348 160.301V176.066C56.3348 177.566 57.5481 178.78 59.0474 178.78H106.341" stroke="white" stroke-width="2" stroke-miterlimit="10"/>
<path d="M8.76351 144.059C9.41925 144.059 9.95084 143.527 9.95084 142.871C9.95084 142.215 9.41925 141.683 8.76351 141.683C8.10776 141.683 7.57617 142.215 7.57617 142.871C7.57617 143.527 8.10776 144.059 8.76351 144.059Z" fill="white"/>
<path d="M106.333 179.959C106.989 179.959 107.52 179.427 107.52 178.771C107.52 178.115 106.989 177.583 106.333 177.583C105.677 177.583 105.146 178.115 105.146 178.771C105.146 179.427 105.677 179.959 106.333 179.959Z" fill="white"/>
</svg>
